<svg xmlns="http://www.w3.org/2000/svg" xmlns:xlink="http://www.w3.org/1999/xlink" width="128" zoomAndPan="magnify" viewBox="0 0 96 95.999999" height="128" preserveAspectRatio="xMidYMid meet" version="1.0"><defs><clipPath id="e5a890da5d"><path d="M 19 83 L 93 83 L 93 94.558594 L 19 94.558594 Z M 19 83 " clip-rule="nonzero"/></clipPath><clipPath id="81ec66f7c2"><path d="M 13 1.558594 L 56 1.558594 L 56 48 L 13 48 Z M 13 1.558594 " clip-rule="nonzero"/></clipPath></defs><path fill="#000000" d="M 88.789062 27 L 86.78125 24.585938 L 84.320312 26.636719 L 86.328125 29.050781 C 89.121094 32.40625 91.367188 36.167969 93.011719 40.230469 L 95.980469 39.027344 C 94.214844 34.65625 91.792969 30.609375 88.789062 27 " fill-opacity="1" fill-rule="nonzero"/><path fill="#000000" d="M 24.015625 26.1875 L 23.34375 27 C 19.851562 31.191406 17.167969 35.945312 15.367188 41.117188 L 18.390625 42.175781 C 20.066406 37.363281 22.558594 32.949219 25.804688 29.050781 L 26.476562 28.242188 L 24.015625 26.1875 " fill-opacity="1" fill-rule="nonzero"/><path fill="#000000" d="M 29.59375 34.589844 L 27.03125 32.667969 C 25.101562 35.238281 23.496094 38.050781 22.257812 41.027344 L 25.210938 42.265625 C 26.351562 39.535156 27.824219 36.953125 29.59375 34.589844 " fill-opacity="1" fill-rule="nonzero"/><path fill="#000000" d="M 88.484375 65.285156 L 91.578125 66.109375 C 92.449219 62.828125 92.894531 59.449219 92.894531 56.066406 L 89.691406 56.066406 C 89.691406 59.171875 89.285156 62.273438 88.484375 65.285156 " fill-opacity="1" fill-rule="nonzero"/><path fill="#000000" d="M 86.921875 42.265625 L 89.875 41.027344 C 88.636719 38.050781 87.027344 35.238281 85.101562 32.667969 C 84.707031 32.136719 84.292969 31.613281 83.871094 31.105469 L 81.410156 33.160156 C 81.796875 33.625 82.175781 34.105469 82.539062 34.589844 C 84.308594 36.953125 85.78125 39.535156 86.921875 42.265625 " fill-opacity="1" fill-rule="nonzero"/><path fill="#000000" d="M 61.042969 56.59375 L 60.695312 53.40625 C 61.726562 53.292969 62.765625 53.140625 63.78125 52.953125 L 64.363281 56.105469 C 63.269531 56.308594 62.152344 56.472656 61.042969 56.59375 Z M 61.011719 66.265625 L 60.726562 63.070312 C 61.761719 62.976562 62.808594 62.851562 63.832031 62.695312 L 64.3125 65.867188 C 63.222656 66.03125 62.109375 66.164062 61.011719 66.265625 Z M 56.089844 47.257812 C 52.867188 47.257812 49.628906 46.820312 46.457031 45.941406 L 46.457031 49.664062 C 46.457031 50.550781 45.742188 51.265625 44.859375 51.265625 C 40.765625 51.265625 37.179688 49.058594 35.222656 45.773438 C 35.007812 49.902344 33.328125 53.765625 30.4375 56.75 L 41.832031 59.285156 L 49.660156 59.285156 C 52.308594 59.285156 54.464844 61.441406 54.464844 64.09375 C 54.464844 64.722656 54.34375 65.316406 54.125 65.867188 C 56.164062 66.421875 57.667969 68.292969 57.667969 70.507812 C 57.667969 72.722656 56.164062 74.59375 54.125 75.148438 C 54.34375 75.699219 54.464844 76.296875 54.464844 76.921875 L 68.414062 76.921875 C 73.054688 76.921875 77.339844 74.398438 79.597656 70.332031 C 81.464844 66.960938 82.648438 63.242188 83.089844 59.425781 C 79.242188 61.582031 75.15625 63.273438 70.90625 64.457031 L 70.046875 61.367188 C 74.703125 60.070312 79.15625 58.128906 83.28125 55.597656 C 83.242188 53.160156 82.898438 50.75 82.269531 48.417969 C 81.570312 49.03125 80.824219 49.585938 80.027344 50.074219 C 77.160156 51.839844 74.089844 53.292969 70.90625 54.386719 L 69.867188 51.355469 C 72.828125 50.335938 75.683594 48.984375 78.351562 47.34375 C 79.378906 46.707031 80.3125 45.941406 81.140625 45.054688 C 80.257812 42.867188 79.113281 40.785156 77.722656 38.859375 C 77.121094 40.085938 76.183594 41.148438 74.992188 41.878906 C 69.21875 45.4375 62.683594 47.257812 56.089844 47.257812 " fill-opacity="1" fill-rule="nonzero"/><path fill="#000000" d="M 31.785156 43.25 L 33.648438 43.25 C 33.820312 43.25 33.984375 43.277344 34.140625 43.328125 C 33.820312 42.289062 33.648438 41.183594 33.648438 40.042969 L 33.648438 39.964844 C 32.957031 41.019531 32.335938 42.113281 31.785156 43.25 " fill-opacity="1" fill-rule="nonzero"/><path fill="#000000" d="M 59.15625 31.019531 L 53.976562 43.976562 C 60.695312 44.410156 67.4375 42.769531 73.316406 39.148438 C 74.527344 38.402344 75.28125 37.050781 75.28125 35.625 C 75.28125 34.199219 74.527344 32.851562 73.316406 32.105469 C 68.421875 29.089844 62.925781 27.429688 57.25 27.234375 L 58.941406 29.449219 C 59.28125 29.898438 59.363281 30.492188 59.15625 31.019531 " fill-opacity="1" fill-rule="nonzero"/><path fill="#000000" d="M 82.332031 72 C 79.496094 77.015625 74.175781 80.128906 68.414062 80.128906 L 53.238281 80.128906 C 52.628906 80.808594 51.828125 81.316406 50.921875 81.5625 C 51.140625 82.113281 51.261719 82.710938 51.261719 83.335938 C 51.261719 85.457031 49.882812 87.261719 47.972656 87.898438 C 50.527344 88.058594 53.230469 88.144531 56.066406 88.144531 C 78.882812 88.144531 92.894531 82.542969 92.894531 78.527344 C 92.894531 76.851562 90.097656 74.1875 82.332031 72 " fill-opacity="1" fill-rule="nonzero"/><g clip-path="url(#e5a890da5d)"><path fill="#000000" d="M 56.066406 91.351562 C 45.652344 91.351562 35.84375 90.164062 28.445312 88 C 24.414062 86.824219 21.324219 85.421875 19.238281 83.839844 L 19.238281 84.9375 C 19.238281 88.957031 33.25 94.558594 56.066406 94.558594 C 78.882812 94.558594 92.894531 88.957031 92.894531 84.9375 L 92.894531 83.839844 C 90.808594 85.421875 87.71875 86.824219 83.6875 88 C 76.289062 90.164062 66.480469 91.351562 56.066406 91.351562 " fill-opacity="1" fill-rule="nonzero"/></g><g clip-path="url(#81ec66f7c2)"><path fill="#000000" d="M 27.242188 12.785156 L 30.445312 12.785156 L 30.445312 20.800781 C 30.445312 25.542969 32.289062 30 35.640625 33.355469 L 36.382812 34.097656 C 36.683594 34.398438 36.851562 34.808594 36.851562 35.230469 L 36.851562 40.042969 C 36.851562 43.914062 39.605469 47.152344 43.257812 47.898438 L 43.257812 32.027344 L 46.457031 32.027344 L 46.457031 42.601562 C 47.851562 43.027344 49.261719 43.359375 50.679688 43.597656 L 55.84375 30.671875 L 33.613281 1.558594 L 13.582031 1.558594 L 27.242188 17.976562 L 27.242188 12.785156 " fill-opacity="1" fill-rule="nonzero"/></g><path fill="#000000" d="M 41.832031 84.9375 L 46.457031 84.9375 C 47.339844 84.9375 48.058594 84.21875 48.058594 83.335938 C 48.058594 82.453125 47.339844 81.730469 46.457031 81.730469 L 41.65625 81.730469 C 41.539062 81.730469 41.421875 81.71875 41.308594 81.695312 L 30.097656 79.199219 L 30.792969 76.070312 L 41.832031 78.527344 L 49.660156 78.527344 C 50.542969 78.527344 51.261719 77.804688 51.261719 76.921875 C 51.261719 76.039062 50.542969 75.320312 49.660156 75.320312 L 41.65625 75.320312 C 41.539062 75.320312 41.421875 75.304688 41.308594 75.28125 L 30.097656 72.785156 L 30.792969 69.65625 L 41.832031 72.113281 L 52.863281 72.113281 C 53.746094 72.113281 54.464844 71.390625 54.464844 70.507812 C 54.464844 69.625 53.746094 68.90625 52.863281 68.90625 L 41.65625 68.90625 C 41.539062 68.90625 41.421875 68.890625 41.308594 68.867188 L 30.097656 66.371094 L 30.792969 63.242188 L 41.832031 65.699219 L 49.660156 65.699219 C 50.542969 65.699219 51.261719 64.976562 51.261719 64.09375 C 51.261719 63.210938 50.542969 62.492188 49.660156 62.492188 L 41.65625 62.492188 C 41.539062 62.492188 41.421875 62.476562 41.308594 62.453125 L 26.898438 59.246094 C 26.328125 59.117188 25.871094 58.691406 25.707031 58.128906 C 25.542969 57.566406 25.699219 56.960938 26.113281 56.546875 L 27.988281 54.667969 C 30.222656 52.429688 31.601562 49.558594 31.957031 46.457031 L 27.90625 46.457031 L 18.769531 55.609375 C 18.46875 55.90625 18.0625 56.078125 17.636719 56.078125 L 0.0234375 56.078125 L 0.0234375 75.320312 L 14.433594 75.320312 C 14.683594 75.320312 14.929688 75.375 15.152344 75.488281 L 27.785156 81.8125 L 41.832031 84.9375 " fill-opacity="1" fill-rule="nonzero"/></svg>