<svg xmlns="http://www.w3.org/2000/svg" xmlns:xlink="http://www.w3.org/1999/xlink" width="500" zoomAndPan="magnify" viewBox="0 0 375 243.75" height="325" preserveAspectRatio="xMidYMid meet" version="1.0"><path fill="#000000" d="M 252.382812 3.394531 C 250.457031 3.722656 248.269531 4.4375 246.453125 5.347656 C 239.265625 8.921875 235.003906 15.578125 235.046875 23.1875 C 235.089844 29.996094 238.964844 35.242188 245.242188 36.910156 C 247.40625 37.496094 251.28125 37.429688 254.007812 36.78125 C 257.210938 36.023438 258.679688 35.261719 260.671875 33.289062 C 263.292969 30.644531 264.503906 27.695312 264.503906 23.902344 C 264.503906 19.328125 262.253906 15.40625 258.679688 13.691406 C 257.382812 13.085938 257.058594 13.019531 255.089844 13.019531 C 253.03125 13.019531 252.835938 13.0625 251.257812 13.824219 C 248.164062 15.296875 246.496094 17.550781 246.367188 20.5 C 246.300781 21.84375 246.386719 22.386719 246.863281 23.644531 C 247.492188 25.335938 248.011719 25.984375 249.179688 26.589844 C 250.328125 27.175781 251.410156 27.132812 252.058594 26.460938 C 252.730469 25.8125 252.730469 25.355469 252.082031 24.378906 C 251.605469 23.6875 249.980469 22.667969 249.375 22.667969 C 249.265625 22.667969 249.09375 22.125 249.027344 21.476562 C 248.8125 19.828125 249.289062 18.65625 250.671875 17.355469 C 252.035156 16.078125 252.945312 15.710938 254.742188 15.6875 C 256.539062 15.664062 257.578125 16.164062 258.875 17.617188 C 260.046875 18.917969 260.738281 20.414062 261.0625 22.300781 C 261.277344 23.644531 261.257812 23.925781 260.824219 25.335938 C 260.132812 27.566406 259.09375 29.324219 257.644531 30.710938 C 254.722656 33.507812 251.257812 34.546875 247.1875 33.855469 C 243.488281 33.203125 241.214844 31.554688 239.699219 28.433594 C 238.726562 26.398438 238.464844 24.964844 238.597656 22.234375 C 238.769531 18.246094 240.089844 15.1875 242.945312 12.109375 C 245.328125 9.550781 248.03125 7.925781 251.300781 7.082031 C 257.988281 5.390625 264.9375 7.296875 269.332031 12.046875 C 273.117188 16.144531 274.199219 22.039062 272.253906 28.085938 C 270.757812 32.769531 267.511719 36.933594 263.03125 39.902344 C 262.230469 40.445312 259.007812 42.003906 255.847656 43.390625 C 252.6875 44.757812 248.269531 46.710938 246 47.707031 C 243.746094 48.683594 236.667969 51.761719 230.304688 54.535156 C 223.941406 57.308594 217.667969 60.042969 216.347656 60.605469 C 215.046875 61.167969 210.652344 63.078125 206.605469 64.832031 C 202.558594 66.589844 198.621094 68.300781 197.839844 68.648438 C 197.0625 68.972656 195.308594 69.753906 193.945312 70.339844 L 191.457031 71.402344 L 191.390625 73.480469 L 191.324219 75.542969 L 192.6875 74.933594 C 193.445312 74.589844 197.363281 72.875 201.410156 71.121094 C 205.457031 69.363281 209.851562 67.476562 211.152344 66.890625 C 212.472656 66.328125 216.84375 64.421875 220.890625 62.664062 C 227.707031 59.714844 230.675781 58.414062 234.851562 56.59375 C 235.738281 56.203125 237.644531 55.378906 239.070312 54.753906 C 240.5 54.144531 242.644531 53.210938 243.832031 52.691406 C 247.859375 50.914062 256.367188 47.25 259.894531 45.734375 C 262.382812 44.671875 263.421875 44.128906 263.421875 43.890625 C 263.421875 43.695312 263.574219 43.457031 263.769531 43.390625 C 264.808594 42.980469 267.46875 40.941406 269.289062 39.144531 C 274.222656 34.246094 276.625 28.652344 276.625 22.015625 C 276.625 17.074219 275.175781 13.347656 271.929688 9.878906 C 267.664062 5.347656 262.339844 3.113281 255.953125 3.179688 C 254.65625 3.199219 253.03125 3.289062 252.382812 3.394531 Z M 252.382812 3.394531 " fill-opacity="1" fill-rule="nonzero"/><path fill="#000000" d="M 37.457031 33.074219 C 37.457031 38.644531 35.964844 42.375 32.199219 46.125 C 29.578125 48.746094 26.65625 50.351562 22.308594 51.566406 C 20.835938 51.976562 19.96875 52.019531 12.414062 52.105469 L 4.125 52.195312 L 4.125 193.019531 L 12.199219 193.125 C 19.535156 193.214844 20.402344 193.257812 22.027344 193.667969 C 27.652344 195.140625 32.023438 198.046875 34.753906 202.167969 C 36.785156 205.246094 37.457031 207.824219 37.457031 212.703125 L 37.457031 215.824219 L 75.898438 215.824219 L 76.851562 214.394531 C 77.390625 213.613281 78.191406 212.421875 78.625 211.75 L 79.425781 210.511719 L 61.179688 210.449219 L 42.933594 210.402344 L 42.695312 208.386719 C 41.960938 202.578125 38.929688 197.351562 34.125 193.625 C 30.445312 190.785156 27.21875 189.3125 22.199219 188.160156 C 21.117188 187.921875 19.058594 187.792969 15.121094 187.707031 L 9.535156 187.597656 L 9.535156 57.570312 L 13.929688 57.570312 C 16.332031 57.570312 19.148438 57.460938 20.140625 57.351562 C 28.5625 56.3125 35.984375 51.671875 39.882812 45.019531 C 41.503906 42.308594 42.003906 40.746094 42.78125 36.367188 L 42.867188 35.890625 L 137.238281 35.890625 C 189.140625 35.890625 231.605469 35.847656 231.605469 35.804688 C 231.605469 35.652344 230.328125 31.792969 230.046875 31.058594 L 229.828125 30.472656 L 37.457031 30.472656 Z M 37.457031 33.074219 " fill-opacity="1" fill-rule="nonzero"/><path fill="#000000" d="M 283.464844 30.839844 C 283.808594 31.664062 283.808594 34.265625 283.464844 35.089844 L 283.140625 35.890625 L 336.363281 35.890625 L 336.449219 36.367188 C 337.226562 40.746094 337.726562 42.308594 339.347656 45.019531 C 343.828125 52.648438 352.941406 57.570312 362.59375 57.570312 L 364.28125 57.570312 L 364.28125 189.527344 L 361.535156 189.65625 C 352.636719 190.046875 345.042969 193.972656 340.34375 200.5625 C 338.527344 203.097656 337.03125 206.71875 336.664062 209.40625 L 336.511719 210.402344 L 235.695312 210.402344 C 180.222656 210.402344 134.855469 210.492188 134.855469 210.578125 C 134.855469 210.6875 135.289062 211.269531 135.828125 211.898438 C 136.347656 212.507812 137.085938 213.65625 137.453125 214.414062 L 138.125 215.824219 L 341.988281 215.824219 L 341.988281 212.984375 C 341.988281 208.996094 342.550781 207.023438 344.5 204.074219 C 347.207031 200 351.644531 197.050781 357.207031 195.640625 C 358.699219 195.25 359.847656 195.164062 364.347656 195.078125 L 369.695312 194.96875 L 369.695312 52.195312 L 364.347656 52.085938 C 359.847656 52 358.699219 51.914062 357.207031 51.523438 C 351.621094 50.113281 347.207031 47.164062 344.480469 43.046875 C 342.53125 40.117188 341.773438 37.324219 341.773438 33.074219 L 341.773438 30.472656 L 312.53125 30.472656 C 284.761719 30.472656 283.289062 30.492188 283.464844 30.839844 Z M 283.464844 30.839844 " fill-opacity="1" fill-rule="nonzero"/><path fill="#000000" d="M 263.898438 47.078125 C 261.105469 48.507812 261.886719 52.605469 265.023438 52.953125 C 268.25 53.320312 269.871094 49.203125 267.253906 47.339844 C 266.410156 46.730469 264.828125 46.601562 263.898438 47.078125 Z M 263.898438 47.078125 " fill-opacity="1" fill-rule="nonzero"/><path fill="#000000" d="M 297.921875 47.921875 C 292.101562 49.179688 286.882812 53.691406 283.484375 60.324219 C 281.257812 64.703125 280.066406 69.277344 279.65625 74.957031 C 278.855469 85.992188 281.925781 93.621094 288.421875 96.742188 C 291.386719 98.152344 294.632812 98.433594 298.203125 97.566406 C 300.238281 97.070312 303.765625 95.3125 305.214844 94.054688 C 309.695312 90.152344 312.554688 84.277344 313.527344 76.863281 C 313.917969 73.9375 313.980469 67.347656 313.636719 64.574219 C 312.792969 57.765625 310.5625 52.734375 307.121094 49.851562 C 304.695312 47.835938 301.449219 47.144531 297.921875 47.921875 Z M 301.535156 51.652344 C 305.257812 53.558594 306.710938 58.894531 306.710938 70.773438 C 306.710938 79.160156 305.824219 84.601562 303.746094 88.765625 C 301.816406 92.691406 299.113281 94.640625 295.433594 94.8125 C 293.332031 94.921875 292.511719 94.726562 291.039062 93.75 C 289.15625 92.496094 287.75 89.632812 286.882812 85.320312 C 286.34375 82.542969 286.210938 72.984375 286.667969 68.953125 C 287.445312 62.1875 289.136719 57.546875 291.90625 54.558594 C 294.847656 51.371094 298.679688 50.222656 301.535156 51.652344 Z M 301.535156 51.652344 " fill-opacity="1" fill-rule="nonzero"/><path fill="#000000" d="M 298.636719 53.472656 C 294.785156 54.101562 291.820312 57.289062 290.152344 62.554688 C 287.902344 69.773438 287.835938 83.238281 290.042969 89.046875 C 290.628906 90.609375 292.144531 92.710938 293.3125 93.558594 C 294.632812 94.511719 294.761719 94.121094 293.550781 92.820312 C 291.90625 91.0625 291.039062 89.113281 290.21875 85.320312 C 289.675781 82.695312 289.417969 73.417969 289.804688 69.644531 C 290.28125 65.113281 291.386719 61.058594 292.75 58.871094 C 293.636719 57.417969 295.214844 55.878906 296.429688 55.230469 C 297.945312 54.449219 300.628906 54.320312 302.574219 54.925781 L 303.9375 55.378906 L 303.441406 54.816406 C 302.335938 53.644531 300.5625 53.148438 298.636719 53.472656 Z M 298.636719 53.472656 " fill-opacity="1" fill-rule="nonzero"/><path fill="#000000" d="M 307.144531 47.75 C 307.144531 47.859375 307.46875 48.117188 307.855469 48.355469 C 309.089844 49.074219 311.039062 51.109375 312.011719 52.691406 C 313.636719 55.316406 314.738281 58.460938 315.496094 62.664062 C 316.058594 65.765625 316.082031 75.390625 315.519531 78.382812 C 314.394531 84.472656 312.207031 89.351562 308.875 93.296875 C 305.433594 97.308594 300.867188 99.605469 295.453125 99.972656 C 293.332031 100.125 291.125 99.734375 289.265625 98.890625 C 287.53125 98.085938 288.03125 98.5625 289.914062 99.496094 C 293.09375 101.078125 296.472656 101.296875 300.324219 100.167969 C 308.960938 97.632812 314.976562 89.046875 316.558594 76.886719 C 317.230469 71.855469 316.925781 64.183594 315.910156 60.105469 C 314.523438 54.578125 312.097656 50.417969 309.199219 48.574219 C 308.007812 47.816406 307.144531 47.46875 307.144531 47.75 Z M 307.144531 47.75 " fill-opacity="1" fill-rule="nonzero"/><path fill="#000000" d="M 210.21875 50.113281 C 207.429688 51.542969 208.207031 55.640625 211.347656 55.988281 C 214.570312 56.355469 216.195312 52.238281 213.574219 50.371094 C 212.730469 49.765625 211.152344 49.636719 210.21875 50.113281 Z M 210.21875 50.113281 " fill-opacity="1" fill-rule="nonzero"/><path fill="#000000" d="M 251.191406 53.472656 C 248.464844 54.664062 245.242188 56.054688 244.050781 56.574219 C 242.859375 57.09375 239.699219 58.480469 237.015625 59.628906 C 232.363281 61.644531 229.117188 63.054688 225.542969 64.617188 C 224.65625 65.007812 220.609375 66.761719 216.5625 68.519531 C 212.515625 70.273438 208.230469 72.136719 207.039062 72.660156 C 205.847656 73.179688 201.867188 74.914062 198.164062 76.515625 L 191.457031 79.421875 L 191.390625 81.417969 C 191.324219 83.257812 191.367188 83.410156 191.714844 83.300781 C 191.929688 83.238281 194.484375 82.152344 197.40625 80.875 C 200.328125 79.59375 204.464844 77.796875 206.605469 76.863281 C 208.75 75.933594 212.796875 74.175781 215.589844 72.960938 C 218.378906 71.746094 221.648438 70.316406 222.839844 69.820312 C 224.03125 69.296875 227.296875 67.890625 230.089844 66.675781 C 232.882812 65.460938 237.277344 63.554688 239.828125 62.449219 C 242.382812 61.34375 246.539062 59.542969 249.027344 58.4375 C 251.539062 57.351562 254.179688 56.203125 254.9375 55.902344 L 256.277344 55.316406 L 256.277344 53.300781 C 256.277344 52.195312 256.257812 51.285156 256.234375 51.285156 C 256.191406 51.285156 253.941406 52.28125 251.191406 53.472656 Z M 251.191406 53.472656 " fill-opacity="1" fill-rule="nonzero"/><path fill="#000000" d="M 271.539062 57.484375 C 267.859375 58.980469 261.019531 61.90625 260.195312 62.339844 L 259.460938 62.707031 L 261.648438 63.964844 L 263.855469 65.199219 L 263.855469 102.226562 L 261.691406 104.980469 C 260.5 106.476562 259.546875 107.734375 259.570312 107.757812 C 259.613281 107.777344 262.878906 106.714844 266.839844 105.414062 L 274.050781 103.03125 L 272.101562 101.75 L 270.132812 100.492188 L 270.132812 62.925781 L 271.882812 60.195312 C 272.859375 58.699219 273.789062 57.246094 273.984375 56.964844 C 274.15625 56.703125 274.199219 56.488281 274.113281 56.507812 C 274.003906 56.507812 272.859375 56.964844 271.539062 57.484375 Z M 271.539062 57.484375 " fill-opacity="1" fill-rule="nonzero"/><path fill="#000000" d="M 273.617188 60 L 271.863281 62.664062 L 271.863281 100.386719 L 273.917969 102.292969 C 275.042969 103.355469 275.976562 104.265625 275.976562 104.351562 C 275.976562 104.4375 274.828125 104.828125 273.421875 105.242188 C 269.785156 106.324219 261.191406 109.164062 260.953125 109.382812 C 260.867188 109.46875 260.953125 109.664062 261.191406 109.773438 C 261.515625 109.945312 262.664062 109.664062 266.472656 108.429688 C 269.136719 107.5625 272.816406 106.433594 274.613281 105.890625 C 276.429688 105.371094 277.921875 104.871094 277.921875 104.785156 C 277.921875 104.722656 276.753906 103.550781 275.324219 102.207031 L 272.730469 99.757812 L 272.730469 62.664062 L 274.351562 60.238281 C 275.652344 58.285156 275.910156 57.785156 275.671875 57.570312 C 275.433594 57.398438 275.023438 57.875 273.617188 60 Z M 273.617188 60 " fill-opacity="1" fill-rule="nonzero"/><path fill="#000000" d="M 253.984375 66.261719 C 252.273438 68.0625 250.695312 68.667969 246.753906 69.039062 C 243.726562 69.320312 241.5625 69.90625 239.308594 71.03125 C 233.898438 73.742188 229.417969 78.664062 225.804688 85.882812 C 222.015625 93.425781 220.871094 102.660156 222.839844 109.492188 C 223.574219 111.984375 224.265625 113.261719 225.847656 114.953125 C 228.855469 118.207031 233.226562 118.878906 238.703125 116.949219 C 245.761719 114.433594 249.980469 110.335938 252.1875 103.789062 C 253.292969 100.558594 253.8125 96.332031 253.25 95.269531 C 252.925781 94.683594 252.035156 94.75 251.625 95.355469 C 251.453125 95.636719 251.191406 96.699219 251.085938 97.695312 C 250.414062 103.183594 248.703125 107.0625 245.585938 110.140625 C 244.308594 111.398438 243.378906 112.113281 242.210938 112.699219 C 238.078125 114.738281 235.285156 114.605469 232.902344 112.242188 C 230.675781 110.011719 229.636719 106.933594 229.179688 101.316406 C 228.769531 96.15625 229.332031 89.914062 230.632812 85.425781 C 232.621094 78.578125 237.492188 73.351562 242.210938 73.003906 C 245.457031 72.789062 247.644531 74.804688 248.660156 79.011719 C 248.855469 79.855469 249.136719 80.550781 249.246094 80.550781 C 249.375 80.550781 249.9375 79.160156 250.523438 77.449219 C 251.429688 74.738281 253.636719 68.953125 254.632812 66.632812 C 255.066406 65.589844 254.785156 65.441406 253.984375 66.261719 Z M 253.984375 66.261719 " fill-opacity="1" fill-rule="nonzero"/><path fill="#000000" d="M 254.699219 70.730469 C 252.925781 75.066406 250.652344 80.960938 250.652344 81.265625 C 250.652344 81.351562 250.824219 81.417969 251.042969 81.417969 C 251.367188 81.417969 251.710938 80.65625 252.792969 77.710938 C 253.53125 75.695312 254.808594 72.398438 255.628906 70.402344 C 256.472656 68.429688 257.144531 66.675781 257.144531 66.523438 C 257.144531 66.371094 257.015625 66.242188 256.84375 66.242188 C 256.667969 66.242188 255.824219 67.996094 254.699219 70.730469 Z M 254.699219 70.730469 " fill-opacity="1" fill-rule="nonzero"/><path fill="#000000" d="M 96.328125 74.914062 C 91.4375 75.304688 85.984375 76.605469 77.175781 79.464844 C 69.425781 81.980469 62.523438 83.976562 58.128906 84.972656 C 54.382812 85.796875 48.386719 86.835938 47.261719 86.835938 C 46.894531 86.835938 46.527344 86.921875 46.460938 87.03125 C 46.351562 87.203125 51.203125 91.476562 53.753906 93.46875 L 54.773438 94.273438 L 54.773438 128.828125 L 53.429688 129.109375 C 47.523438 130.257812 43.496094 132.792969 40.597656 137.175781 C 39.816406 138.386719 39.796875 138.429688 40.140625 138.953125 L 40.488281 139.492188 L 41.875 138.519531 C 44.925781 136.394531 50.292969 134.527344 53.386719 134.527344 L 54.773438 134.527344 L 54.773438 137.976562 L 53.582031 138.191406 C 52.933594 138.324219 51.828125 138.539062 51.160156 138.667969 C 49.511719 138.996094 46.613281 140.164062 44.773438 141.25 C 43.972656 141.75 43.300781 142.179688 43.300781 142.226562 C 43.300781 142.269531 43.410156 142.570312 43.5625 142.875 C 43.820312 143.4375 44.058594 143.570312 44.253906 143.222656 C 44.492188 142.855469 49.015625 141.054688 51.113281 140.492188 C 52.242188 140.1875 53.515625 139.949219 53.972656 139.949219 L 54.773438 139.949219 L 54.773438 168.042969 L 49.925781 172.855469 C 46.027344 176.714844 45.183594 177.667969 45.597656 177.667969 C 47.5 177.667969 54.835938 176.390625 59.882812 175.175781 C 64.792969 174.003906 77.109375 170.320312 77.542969 169.910156 C 77.628906 169.820312 75.746094 168.671875 73.363281 167.371094 L 69.058594 164.988281 L 69.058594 147.90625 C 69.058594 134.441406 69.121094 130.820312 69.339844 130.757812 C 80.53125 127.375 92.324219 122.929688 98.753906 119.65625 C 112.453125 112.675781 119.035156 102.140625 117.214844 90.089844 C 116.609375 85.925781 114.835938 82.371094 112.109375 79.769531 C 108.015625 75.867188 103.105469 74.371094 96.328125 74.914062 Z M 94.230469 84.148438 C 97.929688 85.101562 100.160156 87.550781 101.328125 91.929688 C 102.023438 94.46875 102.023438 99.84375 101.328125 102.335938 C 100.375 105.847656 98.582031 108.90625 95.898438 111.550781 C 92.023438 115.367188 86.09375 118.746094 78.082031 121.71875 C 76.460938 122.324219 75.074219 122.824219 75.011719 122.824219 C 74.945312 122.824219 74.902344 116.167969 74.902344 108.015625 L 74.902344 93.210938 L 80.054688 91.539062 C 87.457031 89.132812 88.472656 88.917969 92.109375 88.894531 C 95.050781 88.894531 95.183594 88.917969 96.546875 89.566406 C 97.324219 89.9375 98.363281 90.566406 98.820312 90.976562 L 99.664062 91.714844 L 98.925781 90.652344 C 96.132812 86.726562 92.714844 86.144531 84.964844 88.265625 C 83.90625 88.570312 80.746094 89.546875 77.996094 90.457031 L 72.953125 92.125 L 72.910156 107.84375 L 72.847656 123.539062 L 71.351562 124.058594 C 70.507812 124.320312 69.664062 124.558594 69.449219 124.558594 C 69.078125 124.558594 69.058594 123.777344 69.058594 106.910156 L 69.058594 89.285156 L 72.585938 88.027344 C 78.515625 85.882812 82.238281 84.796875 85.855469 84.148438 C 88.257812 83.714844 92.585938 83.714844 94.230469 84.148438 Z M 94.230469 84.148438 " fill-opacity="1" fill-rule="nonzero"/><path fill="#000000" d="M 241.019531 75.085938 C 237.6875 76.234375 234.828125 79.421875 233.207031 83.757812 C 230.761719 90.28125 230.523438 101.511719 232.6875 107.453125 C 233.445312 109.535156 234.589844 111.3125 235.675781 112.070312 C 236.496094 112.632812 238.03125 113.023438 238.921875 112.894531 C 239.589844 112.785156 239.527344 112.417969 238.8125 112.417969 C 237.144531 112.394531 235.046875 110.550781 233.964844 108.167969 C 232.578125 105.109375 231.886719 99.910156 232.125 94.597656 C 232.382812 89.175781 233.140625 85.492188 234.636719 82.390625 C 236.734375 78.035156 240.480469 75.304688 243.921875 75.628906 C 244.589844 75.695312 245.304688 75.800781 245.523438 75.886719 C 245.738281 75.976562 245.890625 75.953125 245.890625 75.800781 C 245.890625 75.390625 244.136719 74.695312 243.078125 74.71875 C 242.535156 74.71875 241.625 74.871094 241.019531 75.085938 Z M 241.019531 75.085938 " fill-opacity="1" fill-rule="nonzero"/><path fill="#000000" d="M 114.078125 76.949219 C 114.078125 77.015625 114.660156 77.730469 115.398438 78.535156 C 117.152344 80.507812 119.097656 83.476562 119.921875 85.46875 C 121.15625 88.417969 121.5 90.585938 121.523438 94.964844 C 121.523438 100.582031 120.722656 104.179688 118.601562 108.296875 C 113.535156 118.03125 100.894531 125.078125 74.535156 132.792969 L 72.953125 133.25 L 72.953125 165.203125 L 77.390625 168.890625 C 79.835938 170.90625 81.828125 172.597656 81.828125 172.617188 C 81.828125 172.703125 72.890625 175.609375 68.949219 176.800781 C 63.886719 178.339844 57.671875 179.902344 53.800781 180.574219 C 52.023438 180.898438 50.164062 181.226562 49.707031 181.3125 L 48.84375 181.464844 L 49.75 182.199219 L 50.683594 182.914062 L 52.78125 182.546875 C 59.273438 181.398438 67.21875 179.207031 78.386719 175.523438 L 85.941406 173.007812 L 80.421875 168.371094 L 74.902344 163.730469 L 74.902344 134.574219 L 79.078125 133.226562 C 87.867188 130.386719 97.585938 126.550781 103.6875 123.496094 C 109.640625 120.523438 112.671875 118.398438 116.027344 114.886719 C 120.765625 109.945312 122.953125 104.632812 123.320312 97.132812 C 123.6875 89.761719 121.4375 82.804688 117.496094 79.117188 C 116.5 78.164062 114.078125 76.648438 114.078125 76.949219 Z M 114.078125 76.949219 " fill-opacity="1" fill-rule="nonzero"/><path fill="#000000" d="M 156.953125 83.0625 C 155.351562 83.476562 153.988281 83.84375 153.945312 83.886719 C 153.902344 83.953125 154.269531 84.257812 154.746094 84.582031 L 155.632812 85.167969 L 155.632812 98.890625 L 154.769531 99.734375 C 154.292969 100.191406 153.945312 100.601562 153.988281 100.644531 C 154.03125 100.6875 155.4375 100.386719 157.128906 99.953125 C 160.742188 99.042969 164.769531 98.324219 166.261719 98.324219 C 166.847656 98.324219 167.320312 98.261719 167.320312 98.152344 C 167.320312 98.066406 167.0625 97.609375 166.738281 97.132812 C 166.414062 96.65625 165.894531 95.660156 165.589844 94.902344 L 165.007812 93.535156 L 164.726562 94.53125 C 164.140625 96.589844 162.929688 97.652344 160.460938 98.238281 L 159.3125 98.5 L 159.3125 84.496094 L 159.855469 83.84375 C 160.675781 82.847656 160.503906 82.609375 159.636719 83.5625 L 158.878906 84.386719 L 158.835938 91.496094 C 158.792969 96.960938 158.707031 98.628906 158.511719 98.714844 C 158.296875 98.78125 158.230469 97.265625 158.230469 91.628906 L 158.230469 84.472656 L 159.097656 83.476562 C 159.855469 82.585938 160.09375 82.261719 159.917969 82.285156 C 159.875 82.304688 158.554688 82.628906 156.953125 83.0625 Z M 156.953125 83.0625 " fill-opacity="1" fill-rule="nonzero"/><path fill="#000000" d="M 177.105469 83.929688 C 174.3125 85.363281 175.09375 89.460938 178.230469 89.804688 C 181.457031 90.175781 183.078125 86.054688 180.460938 84.191406 C 179.617188 83.585938 178.035156 83.453125 177.105469 83.929688 Z M 177.105469 83.929688 " fill-opacity="1" fill-rule="nonzero"/><path fill="#000000" d="M 147.84375 85.425781 C 144.574219 86.292969 140.203125 87.054688 138.621094 87.054688 C 137.972656 87.054688 137.453125 87.140625 137.453125 87.25 C 137.453125 87.335938 137.84375 87.703125 138.320312 88.027344 L 139.183594 88.636719 L 139.183594 94.164062 L 138.601562 94.316406 C 137.714844 94.53125 137.0625 95.007812 136.695312 95.722656 L 136.371094 96.375 L 137.367188 95.832031 C 137.929688 95.53125 138.558594 95.289062 138.773438 95.289062 C 139.574219 95.289062 139.164062 95.855469 138.058594 96.332031 C 136.761719 96.875 136.78125 97.242188 138.101562 96.722656 C 138.578125 96.527344 139.035156 96.375 139.078125 96.375 C 139.140625 96.375 139.183594 97.71875 139.183594 99.367188 L 139.183594 102.378906 L 138.210938 103.074219 C 137.667969 103.464844 137.238281 103.8125 137.238281 103.832031 C 137.238281 103.941406 139.445312 103.722656 141.78125 103.398438 C 143.96875 103.074219 148.230469 102.140625 150.589844 101.46875 L 151.714844 101.144531 L 150.785156 100.191406 C 150.265625 99.691406 149.726562 98.890625 149.574219 98.433594 L 149.292969 97.589844 L 148.773438 98.671875 C 147.777344 100.644531 146.21875 101.773438 143.96875 102.140625 L 143.058594 102.292969 L 143.125 99.0625 L 143.1875 95.855469 L 144.164062 95.660156 C 145.484375 95.421875 145.722656 95.335938 145.589844 95.097656 C 145.484375 94.921875 144.984375 94.988281 143.144531 95.398438 C 142.648438 95.507812 142.648438 95.574219 142.648438 98.976562 C 142.648438 102.316406 142.625 102.445312 142.214844 102.445312 C 141.78125 102.445312 141.78125 102.335938 141.824219 98.714844 L 141.890625 94.988281 L 143.621094 94.683594 L 145.332031 94.359375 L 146.152344 95.3125 L 146.976562 96.265625 L 146.976562 93.492188 C 146.976562 91.972656 146.933594 90.738281 146.890625 90.738281 C 146.824219 90.738281 146.480469 91.28125 146.109375 91.929688 C 145.742188 92.582031 145.375 93.144531 145.289062 93.210938 C 145.203125 93.253906 144.683594 93.363281 144.121094 93.449219 L 143.082031 93.601562 L 143.082031 91.214844 C 143.082031 89.894531 143.144531 88.765625 143.253906 88.722656 C 143.339844 88.65625 144.140625 88.484375 145.050781 88.332031 C 146.5 88.09375 146.761719 88.117188 147.410156 88.417969 C 148.382812 88.917969 148.511719 88.699219 147.605469 88.136719 C 146.824219 87.636719 146.066406 87.636719 143.796875 88.136719 L 142.648438 88.398438 L 142.648438 91.085938 C 142.648438 93.621094 142.625 93.773438 142.214844 93.773438 C 141.804688 93.773438 141.78125 93.621094 141.78125 90.867188 C 141.78125 88.265625 141.824219 87.941406 142.171875 87.832031 C 142.367188 87.769531 143.449219 87.550781 144.550781 87.378906 C 146.890625 86.964844 147.429688 87.117188 148.253906 88.417969 L 148.773438 89.222656 L 149.359375 87.855469 C 149.660156 87.117188 150.179688 86.097656 150.503906 85.578125 C 150.851562 85.035156 150.980469 84.691406 150.828125 84.691406 C 150.679688 84.710938 149.335938 85.058594 147.84375 85.425781 Z M 147.84375 85.425781 " fill-opacity="1" fill-rule="nonzero"/><path fill="#000000" d="M 150.460938 87.074219 C 149.832031 88.289062 149.402344 89.328125 149.464844 89.394531 C 149.59375 89.523438 149.464844 89.761719 150.742188 87.203125 C 151.328125 86.054688 151.761719 85.035156 151.695312 84.992188 C 151.628906 84.929688 151.066406 85.859375 150.460938 87.074219 Z M 150.460938 87.074219 " fill-opacity="1" fill-rule="nonzero"/><path fill="#000000" d="M 147.625 93.664062 C 147.625 95.464844 147.710938 96.589844 147.84375 96.589844 C 147.972656 96.589844 148.058594 95.464844 148.058594 93.664062 C 148.058594 91.867188 147.972656 90.738281 147.84375 90.738281 C 147.710938 90.738281 147.625 91.867188 147.625 93.664062 Z M 147.625 93.664062 " fill-opacity="1" fill-rule="nonzero"/><path fill="#000000" d="M 202.082031 93.6875 C 200.609375 96.09375 200.4375 96.503906 200.632812 97.003906 C 200.742188 97.308594 201.757812 99.539062 202.90625 101.96875 C 204.050781 104.375 204.984375 106.433594 204.984375 106.519531 C 204.984375 106.800781 203.921875 107.734375 203.769531 107.582031 C 203.597656 107.410156 198.707031 97.046875 198.707031 96.851562 C 198.707031 96.765625 199.375 95.574219 200.222656 94.207031 C 201.042969 92.863281 201.691406 91.714844 201.648438 91.671875 C 201.5625 91.582031 187.472656 98.824219 187.449219 98.976562 C 187.449219 99.042969 188.164062 99.453125 189.050781 99.910156 L 190.632812 100.730469 L 189.570312 104.027344 C 188.988281 105.847656 188.035156 108.863281 187.429688 110.746094 C 186.585938 113.390625 186.261719 114.152344 186.023438 114.066406 C 185.847656 114 185.15625 113.78125 184.507812 113.585938 C 183.382812 113.261719 183.253906 113.261719 182.949219 113.585938 C 182.496094 114.042969 182.710938 114.214844 184.441406 114.78125 L 185.894531 115.257812 L 185.65625 115.992188 C 185.375 116.90625 185.199219 116.925781 183.207031 116.125 L 181.648438 115.515625 L 180.957031 117.382812 C 180.566406 118.398438 179.960938 119.808594 179.636719 120.480469 C 179.292969 121.175781 179.03125 121.738281 179.054688 121.738281 C 179.097656 121.738281 179.660156 121.585938 180.308594 121.414062 C 181.648438 121.046875 183.46875 120.980469 183.640625 121.285156 C 183.792969 121.523438 181.867188 127.546875 180.71875 130.476562 C 179.722656 132.96875 178.445312 135.570312 177.386719 137.21875 C 176.476562 138.648438 174.3125 141.335938 173.382812 142.226562 L 172.691406 142.875 L 171.023438 141.121094 C 170.113281 140.164062 168.988281 138.777344 168.511719 138.042969 C 167.863281 137.042969 167.515625 136.695312 167.171875 136.695312 C 166.890625 136.695312 166.671875 136.785156 166.671875 136.871094 C 166.671875 136.957031 167.128906 137.738281 167.710938 138.605469 C 168.75 140.1875 169.875 141.464844 171.304688 142.722656 C 171.953125 143.289062 172.0625 143.503906 171.867188 143.722656 C 171.695312 143.9375 171.695312 144.046875 171.867188 144.109375 C 172.019531 144.15625 171.996094 144.4375 171.78125 144.976562 C 171.390625 145.867188 172.039062 145.585938 164.074219 148.511719 C 156.152344 151.417969 144.402344 155.230469 137.996094 156.945312 C 137.886719 156.964844 137.996094 157.117188 138.253906 157.25 C 138.621094 157.464844 139.421875 157.292969 142.90625 156.292969 C 149.921875 154.277344 162.191406 150.136719 170.050781 147.101562 L 171.800781 146.429688 L 172.453125 144.976562 C 173.058594 143.589844 173.164062 143.480469 174.160156 143.113281 C 175.417969 142.636719 186.886719 137.976562 186.976562 137.890625 C 186.996094 137.867188 186.542969 137.519531 185.957031 137.128906 C 182.820312 135.113281 182.6875 133.8125 184.898438 126.398438 C 186.347656 121.523438 186.28125 121.671875 186.738281 121.933594 C 187.6875 122.476562 187.6875 122.453125 187.125 124.144531 C 185.828125 127.9375 185.199219 130.671875 185.199219 132.6875 C 185.179688 135.222656 185.503906 135.851562 187.882812 137.824219 C 188.664062 138.472656 188.792969 138.691406 188.554688 138.84375 C 188.382812 138.953125 184.789062 140.425781 180.566406 142.136719 C 174.117188 144.738281 172.972656 145.261719 173.210938 145.519531 C 173.46875 145.757812 174.765625 145.304688 181.542969 142.570312 C 185.957031 140.792969 189.808594 139.210938 190.070312 139.058594 L 190.566406 138.800781 L 189.917969 138.28125 C 187.753906 136.457031 186.757812 135.503906 186.476562 134.960938 C 185.9375 133.902344 185.847656 131.972656 186.238281 129.953125 C 186.605469 128.175781 187.925781 123.886719 188.316406 123.277344 C 188.554688 122.886719 189.421875 123.515625 191.84375 125.835938 C 192.753906 126.726562 193.554688 127.398438 193.597656 127.351562 C 193.640625 127.308594 193.835938 126.921875 194.050781 126.507812 C 195.394531 123.863281 199.375 117.835938 199.789062 117.835938 C 199.917969 117.835938 200.046875 118.074219 200.132812 118.378906 C 200.242188 118.8125 199.917969 119.460938 198.554688 121.566406 C 196.953125 124.035156 194.59375 128.089844 194.59375 128.351562 C 194.59375 128.414062 194.722656 128.460938 194.898438 128.460938 C 195.070312 128.460938 195.699219 127.546875 196.28125 126.421875 C 197.429688 124.230469 200.394531 119.570312 200.632812 119.570312 C 200.695312 119.59375 201.519531 121.238281 202.449219 123.257812 L 204.136719 126.921875 L 202.0625 129.542969 C 200.914062 130.996094 200.003906 132.210938 200.046875 132.253906 C 200.113281 132.316406 215.308594 125.792969 215.5 125.597656 C 215.566406 125.53125 214.746094 125.164062 213.707031 124.796875 C 212.667969 124.425781 211.628906 124.035156 211.410156 123.949219 C 211.152344 123.839844 210.027344 121.585938 208.207031 117.511719 C 206.671875 114.042969 205.414062 111.117188 205.414062 110.964844 C 205.414062 110.617188 207.816406 108.925781 209.550781 108.058594 L 211 107.367188 L 210.308594 106.261719 C 209.527344 105.023438 208.664062 103.074219 208.664062 102.574219 C 208.664062 101.945312 208.359375 102.226562 207.167969 103.855469 C 206.519531 104.742188 205.914062 105.480469 205.847656 105.480469 C 205.785156 105.480469 204.746094 103.398438 203.53125 100.839844 L 201.367188 96.222656 L 202.949219 93.578125 C 204.226562 91.476562 204.464844 90.957031 204.136719 90.957031 C 203.878906 90.957031 203.230469 91.800781 202.082031 93.6875 Z M 193.164062 103.679688 L 193.511719 104.503906 L 191.5 110.597656 L 189.464844 116.664062 L 190.847656 117.402344 C 191.605469 117.816406 192.777344 118.617188 193.402344 119.203125 C 194.570312 120.222656 194.570312 120.265625 194.269531 120.828125 C 193.597656 122.105469 193.664062 122.105469 191.972656 120.675781 C 191.085938 119.9375 189.898438 119.050781 189.289062 118.703125 C 188.707031 118.335938 188.078125 117.964844 187.90625 117.859375 C 187.667969 117.707031 188.101562 116.230469 190.070312 110.269531 C 191.433594 106.21875 192.601562 102.878906 192.667969 102.878906 C 192.730469 102.878906 192.949219 103.246094 193.164062 103.679688 Z M 196.691406 110.984375 C 197.582031 112.871094 198.273438 114.519531 198.230469 114.671875 C 198.1875 114.800781 197.492188 115.90625 196.671875 117.121094 L 195.199219 119.332031 L 193.859375 118.183594 C 193.121094 117.554688 192.105469 116.816406 191.605469 116.535156 C 191.109375 116.253906 190.699219 115.929688 190.699219 115.800781 C 190.699219 115.667969 191.457031 113.304688 192.363281 110.53125 L 194.050781 105.480469 L 194.570312 106.519531 C 194.851562 107.085938 195.804688 109.078125 196.691406 110.984375 Z M 196.691406 110.984375 " fill-opacity="1" fill-rule="nonzero"/><path fill="#000000" d="M 166.585938 95.117188 C 166.910156 95.746094 167.453125 96.65625 167.796875 97.15625 C 168.640625 98.347656 168.46875 98.695312 166.933594 98.867188 C 161.824219 99.386719 153.925781 101.078125 154.226562 101.554688 C 154.269531 101.664062 155.851562 101.359375 157.710938 100.90625 C 160.785156 100.148438 163.902344 99.605469 167.128906 99.300781 C 168.1875 99.191406 168.359375 99.105469 168.535156 98.585938 C 168.730469 98.085938 168.664062 97.847656 168.1875 97.132812 C 167.863281 96.65625 167.34375 95.746094 167.019531 95.117188 C 166.714844 94.511719 166.347656 93.988281 166.238281 93.988281 C 166.109375 93.988281 166.28125 94.511719 166.585938 95.117188 Z M 166.585938 95.117188 " fill-opacity="1" fill-rule="nonzero"/><path fill="#000000" d="M 255.089844 96.851562 C 254.722656 100.972656 253.875 104.4375 252.6875 106.84375 C 249.632812 112.9375 244.375 117.230469 237.882812 118.941406 C 235.976562 119.441406 232.753906 119.613281 231.539062 119.289062 C 231.148438 119.179688 230.976562 119.203125 231.042969 119.332031 C 231.257812 119.679688 233.269531 120.003906 235.261719 120.003906 C 238.464844 120.003906 242.015625 118.789062 245.480469 116.515625 C 250.976562 112.894531 254.332031 107.324219 255.652344 99.671875 C 256.191406 96.398438 256.191406 95.289062 255.652344 95.289062 C 255.304688 95.289062 255.21875 95.507812 255.089844 96.851562 Z M 255.089844 96.851562 " fill-opacity="1" fill-rule="nonzero"/><path fill="#000000" d="M 150.441406 98.109375 C 150.441406 98.238281 151.003906 98.910156 151.695312 99.625 C 152.667969 100.625 152.90625 101.015625 152.777344 101.339844 C 152.605469 101.835938 152.777344 101.773438 148.492188 102.855469 C 144.878906 103.765625 140.308594 104.613281 138.925781 104.613281 C 138.363281 104.613281 138.125 104.699219 138.230469 104.851562 C 138.425781 105.15625 140.699219 104.980469 143.730469 104.394531 C 145.589844 104.050781 152.625 102.292969 152.734375 102.164062 C 152.753906 102.140625 152.929688 101.816406 153.101562 101.425781 L 153.449219 100.753906 L 152.496094 99.972656 C 151.976562 99.539062 151.371094 98.890625 151.152344 98.542969 C 150.785156 97.890625 150.441406 97.695312 150.441406 98.109375 Z M 150.441406 98.109375 " fill-opacity="1" fill-rule="nonzero"/><path fill="#000000" d="M 210.394531 102.511719 C 210.394531 102.921875 211.820312 105.804688 212.558594 106.890625 C 212.90625 107.410156 213.207031 107.90625 213.207031 108.015625 C 213.207031 108.125 212.753906 108.339844 212.191406 108.515625 C 211.128906 108.816406 208.207031 110.226562 207.515625 110.769531 C 207.148438 111.050781 207.296875 111.441406 209.917969 117.207031 L 212.6875 123.363281 L 213.769531 123.90625 C 214.355469 124.210938 215.652344 124.839844 216.648438 125.292969 L 218.488281 126.117188 L 210.113281 129.714844 C 205.503906 131.6875 201.734375 133.378906 201.734375 133.488281 C 201.734375 133.597656 201.867188 133.726562 202.039062 133.792969 C 202.34375 133.902344 220.351562 126.335938 220.351562 126.074219 C 220.351562 126.007812 218.8125 125.230469 216.953125 124.363281 L 213.53125 122.800781 L 210.914062 117.011719 C 208.597656 111.917969 208.335938 111.179688 208.617188 110.964844 C 208.8125 110.8125 210.265625 110.183594 211.84375 109.578125 C 213.683594 108.863281 214.65625 108.363281 214.570312 108.210938 C 214.484375 108.082031 214.117188 107.539062 213.726562 106.996094 C 212.925781 105.871094 211.867188 103.875 211.519531 102.898438 C 211.367188 102.445312 211.152344 102.226562 210.847656 102.226562 C 210.589844 102.226562 210.394531 102.359375 210.394531 102.511719 Z M 210.394531 102.511719 " fill-opacity="1" fill-rule="nonzero"/><path fill="#000000" d="M 306.492188 107.996094 C 304.394531 108.429688 301.839844 109.792969 300.367188 111.246094 C 296.96875 114.585938 295.410156 118.574219 295.410156 123.796875 C 295.433594 128.871094 296.773438 131.472656 300.171875 133.078125 C 303.050781 134.421875 307.273438 134.074219 311.167969 132.144531 C 316.191406 129.671875 318.832031 124.296875 318.179688 117.902344 C 317.617188 112.570312 315.109375 109.011719 311.148438 107.972656 C 309.609375 107.582031 308.375 107.582031 306.492188 107.996094 Z M 309.523438 109.597656 C 312.230469 110.359375 313.417969 113.371094 313.417969 119.570312 C 313.417969 123.40625 313.050781 125.574219 312.035156 127.699219 C 310.734375 130.433594 308.722656 131.90625 306.015625 132.101562 C 303.875 132.253906 303.136719 132.035156 302.054688 130.972656 C 301.40625 130.300781 300.996094 129.628906 300.628906 128.546875 C 300.152344 127.160156 300.109375 126.726562 300.109375 122.605469 C 300.109375 117.773438 300.390625 116.167969 301.625 113.695312 C 303.269531 110.488281 306.558594 108.773438 309.523438 109.597656 Z M 309.523438 109.597656 " fill-opacity="1" fill-rule="nonzero"/><path fill="#000000" d="M 306.429688 111.050781 C 304.308594 111.765625 302.597656 113.976562 301.839844 116.96875 C 300.996094 120.222656 301.039062 126.097656 301.925781 128.480469 C 302.359375 129.652344 303.484375 130.953125 304.480469 131.472656 C 305.347656 131.90625 305.257812 131.734375 304.242188 130.820312 C 302.359375 129.152344 301.730469 127.113281 301.730469 122.5625 C 301.730469 118.832031 302.121094 116.710938 303.183594 114.605469 C 304.609375 111.808594 306.992188 110.640625 309.804688 111.375 C 310.539062 111.570312 311.191406 111.703125 311.210938 111.660156 C 311.253906 111.613281 311.039062 111.417969 310.734375 111.226562 C 309.933594 110.683594 307.707031 110.597656 306.429688 111.050781 Z M 306.429688 111.050781 " fill-opacity="1" fill-rule="nonzero"/><path fill="#000000" d="M 313.851562 108.234375 C 313.851562 108.339844 314.199219 108.601562 314.632812 108.839844 C 315.714844 109.425781 317.597656 111.527344 318.269531 112.894531 C 319.738281 115.90625 320.152344 120.828125 319.242188 124.125 C 317.53125 130.386719 311.515625 134.679688 304.351562 134.789062 C 302.707031 134.8125 302.597656 134.832031 303.355469 135.007812 C 304.546875 135.289062 307.144531 135.070312 309.089844 134.527344 C 314.394531 133.035156 318.375 129.085938 319.71875 123.972656 C 320.28125 121.824219 320.324219 117.726562 319.804688 115.777344 C 319.285156 113.804688 318.136719 111.570312 317.054688 110.359375 C 316.125 109.339844 313.851562 107.820312 313.851562 108.234375 Z M 313.851562 108.234375 " fill-opacity="1" fill-rule="nonzero"/><path fill="#000000" d="M 282.578125 115.605469 C 280.390625 116.082031 276.972656 117.707031 274.480469 119.417969 C 272.835938 120.566406 268.832031 124.015625 268.832031 124.296875 C 268.832031 124.382812 269.265625 124.425781 269.804688 124.382812 L 270.78125 124.296875 L 270.78125 134.703125 L 269.546875 135.308594 C 268.441406 135.875 268.269531 136.046875 268.03125 136.890625 C 267.878906 137.414062 267.707031 138.042969 267.621094 138.257812 C 267.511719 138.605469 267.75 138.496094 268.636719 137.847656 C 269.289062 137.367188 270.023438 136.871094 270.304688 136.71875 C 270.738281 136.480469 270.78125 136.523438 270.78125 136.980469 C 270.78125 137.347656 270.414062 137.78125 269.480469 138.496094 C 267.96875 139.6875 267.707031 140.316406 269.179688 139.253906 C 269.71875 138.863281 270.21875 138.472656 270.261719 138.386719 C 270.652344 137.757812 270.78125 138.582031 270.78125 141.597656 L 270.78125 144.976562 L 269.589844 146.691406 C 268.941406 147.621094 268.398438 148.445312 268.398438 148.511719 C 268.398438 148.578125 270.347656 147.644531 272.730469 146.453125 C 275.109375 145.261719 277.058594 144.242188 277.058594 144.199219 C 277.058594 144.15625 276.625 143.828125 276.082031 143.480469 L 275.109375 142.875 L 275.109375 138.148438 C 275.109375 135.570312 275.175781 133.445312 275.28125 133.445312 C 275.371094 133.445312 276.453125 132.816406 277.683594 132.035156 C 279.914062 130.628906 280.28125 130.539062 280.304688 131.429688 C 280.304688 131.582031 279.328125 132.339844 278.140625 133.121094 L 275.976562 134.574219 L 275.976562 142.679688 L 277.382812 143.527344 C 278.160156 144.003906 278.789062 144.4375 278.789062 144.5 C 278.789062 144.566406 276.6875 145.671875 274.136719 146.949219 C 271.582031 148.230469 269.480469 149.378906 269.480469 149.507812 C 269.480469 149.640625 269.546875 149.703125 269.65625 149.660156 C 273.832031 147.578125 279.9375 144.5 280.023438 144.414062 C 280.066406 144.371094 279.328125 143.894531 278.378906 143.375 L 276.625 142.441406 L 276.644531 138.539062 L 276.644531 134.636719 L 278.507812 133.335938 C 279.523438 132.621094 280.433594 132.015625 280.519531 131.972656 C 281.0625 131.753906 283.660156 139.148438 284.242188 142.570312 L 284.503906 144.023438 L 286.234375 142.398438 C 287.1875 141.488281 288.722656 140.164062 289.652344 139.449219 L 291.320312 138.148438 L 290.238281 137.609375 C 287.75 136.308594 284.847656 133.316406 283.226562 130.34375 C 282.769531 129.542969 282.445312 128.847656 282.488281 128.804688 C 282.535156 128.761719 283.335938 128.132812 284.242188 127.417969 C 286.148438 125.902344 287.859375 123.949219 288.679688 122.324219 C 289.089844 121.5 289.265625 120.761719 289.351562 119.570312 C 289.417969 118.140625 289.371094 117.859375 288.917969 117.1875 C 288.117188 115.972656 286.820312 115.453125 284.742188 115.472656 C 283.789062 115.496094 282.816406 115.539062 282.578125 115.605469 Z M 284.027344 118.660156 C 284.65625 119.265625 284.742188 119.507812 284.804688 120.871094 C 284.890625 122.195312 284.828125 122.539062 284.222656 123.839844 C 283.398438 125.574219 280.933594 128.132812 278.292969 129.933594 L 276.625 131.082031 L 276.625 121.414062 L 277.511719 120.914062 C 279.589844 119.722656 281.839844 119.289062 283.507812 119.789062 C 284.136719 119.960938 284.199219 119.9375 283.984375 119.679688 C 283.097656 118.59375 280.738281 118.855469 277.835938 120.328125 L 276.082031 121.21875 L 276.019531 126.292969 C 275.976562 131.253906 275.910156 131.6875 275.28125 131.710938 C 275.175781 131.710938 275.109375 129.238281 275.109375 126.226562 L 275.109375 120.742188 L 276.148438 119.960938 C 278.246094 118.378906 279.742188 117.835938 281.777344 117.902344 C 283.203125 117.945312 283.398438 118.011719 284.027344 118.660156 Z M 284.027344 118.660156 " fill-opacity="1" fill-rule="nonzero"/><path fill="#000000" d="M 289.871094 116.058594 C 291.191406 117.640625 291.257812 120.046875 290.066406 122.519531 C 289.480469 123.691406 288.808594 124.511719 286.949219 126.378906 L 284.546875 128.742188 L 285.238281 130.085938 C 286.777344 133.054688 289.804688 135.851562 292.664062 136.957031 C 293.789062 137.390625 294.308594 137.78125 293.746094 137.78125 C 293.007812 137.78125 285.433594 144.261719 285.757812 144.609375 C 285.84375 144.71875 286.6875 144.066406 287.597656 143.179688 C 289.523438 141.335938 292.425781 139.039062 294.132812 137.996094 L 295.304688 137.28125 L 293.894531 136.804688 C 291.625 136.046875 290.261719 135.179688 288.398438 133.335938 C 287.1875 132.121094 286.449219 131.167969 285.953125 130.171875 L 285.261719 128.742188 L 287.488281 126.488281 C 289.003906 124.96875 289.980469 123.777344 290.476562 122.824219 C 291.191406 121.5 291.234375 121.285156 291.234375 119.355469 C 291.234375 117.554688 291.167969 117.207031 290.738281 116.578125 C 290.453125 116.210938 290.023438 115.777344 289.761719 115.625 C 289.351562 115.410156 289.371094 115.453125 289.871094 116.058594 Z M 289.871094 116.058594 " fill-opacity="1" fill-rule="nonzero"/><path fill="#000000" d="M 148.058594 117.1875 C 146.089844 118.011719 142.863281 119.289062 140.871094 120.027344 C 138.859375 120.785156 137.238281 121.457031 137.238281 121.523438 C 137.238281 121.609375 138.167969 122.042969 139.292969 122.496094 L 141.347656 123.320312 L 141.347656 151.328125 L 139.140625 153.5625 C 137.90625 154.796875 137.105469 155.753906 137.34375 155.6875 C 145.136719 153.433594 147.710938 152.628906 152.257812 151.136719 C 157.410156 149.402344 164.421875 146.90625 168.339844 145.390625 L 170.136719 144.695312 L 169.203125 143.980469 C 167.972656 143.046875 166.304688 140.773438 165.136719 138.453125 C 164.617188 137.390625 164.117188 136.5 164.054688 136.5 C 163.96875 136.480469 163.859375 136.871094 163.773438 137.367188 C 163.535156 138.90625 162.367188 141.574219 161.261719 143.179688 C 159.488281 145.671875 156.566406 147.621094 152.515625 148.921875 C 151.585938 149.226562 150.679688 149.488281 150.527344 149.488281 C 150.265625 149.488281 150.222656 147.144531 150.222656 135.113281 L 150.222656 120.742188 L 151.761719 118.726562 C 152.820312 117.339844 153.230469 116.644531 153.082031 116.492188 C 152.929688 116.339844 152.324219 116.96875 151.109375 118.488281 L 149.359375 120.699219 L 149.359375 149.878906 L 148.839844 150.007812 C 148.554688 150.074219 148.167969 150.203125 147.972656 150.269531 C 147.648438 150.398438 147.625 149.074219 147.625 135.785156 L 147.625 121.195312 L 149.789062 118.507812 C 150.980469 117.054688 151.953125 115.800781 151.953125 115.753906 C 151.953125 115.582031 151.609375 115.710938 148.058594 117.1875 Z M 148.058594 117.1875 " fill-opacity="1" fill-rule="nonzero"/><path fill="#000000" d="M 261.691406 126.378906 C 260.890625 127.160156 258.59375 128.308594 256.605469 128.914062 C 252.535156 130.148438 250.566406 131.015625 248.226562 132.601562 C 245.328125 134.574219 242.40625 137.976562 240.609375 141.464844 C 237.144531 148.164062 237.296875 156.316406 240.910156 158.9375 C 242.902344 160.390625 245.390625 160.628906 247.882812 159.65625 C 248.507812 159.417969 252.1875 157.464844 256.0625 155.339844 C 259.9375 153.214844 263.25 151.417969 263.421875 151.351562 C 263.726562 151.242188 264.675781 151.785156 264.480469 151.9375 C 264.4375 152.003906 263.269531 152.628906 261.90625 153.390625 C 260.542969 154.148438 257.144531 156.011719 254.375 157.550781 C 251.605469 159.089844 248.640625 160.566406 247.773438 160.867188 C 246.28125 161.367188 246.257812 161.390625 247.082031 161.390625 C 248.207031 161.410156 248.550781 161.238281 255.953125 157.140625 C 259.417969 155.210938 263.03125 153.214844 264.027344 152.695312 C 266.039062 151.613281 266.039062 151.71875 263.8125 150.484375 L 262.339844 149.660156 L 262.339844 139.839844 L 263.421875 138.234375 C 264.007812 137.347656 264.417969 136.523438 264.351562 136.414062 C 264.289062 136.308594 263.703125 137.023438 263.074219 138.019531 L 261.90625 139.839844 L 261.90625 150.136719 L 262.621094 150.570312 C 263.464844 151.089844 263.207031 151.113281 261.839844 150.65625 L 260.824219 150.3125 L 260.824219 140.101562 L 262.078125 138.234375 C 262.773438 137.21875 263.421875 136.242188 263.507812 136.089844 C 263.726562 135.742188 264.15625 135.527344 255.5 140.078125 C 251.796875 142.03125 248.660156 143.632812 248.507812 143.632812 C 248.355469 143.632812 248.59375 143.308594 249.007812 142.898438 C 249.980469 141.988281 250.109375 140.902344 249.246094 140.6875 C 247.707031 140.296875 245.738281 143.894531 246.886719 145.023438 C 247.578125 145.738281 248.421875 145.410156 254.308594 142.246094 C 255.566406 141.574219 256.605469 141.03125 256.648438 141.03125 C 256.691406 141.03125 256.710938 141.25 256.710938 141.53125 C 256.710938 141.941406 256.128906 142.332031 252.902344 144.046875 C 250.304688 145.433594 248.789062 146.105469 248.140625 146.191406 C 247.621094 146.234375 247.1875 146.386719 247.1875 146.515625 C 247.1875 146.625 247.578125 146.691406 248.140625 146.625 C 248.769531 146.539062 250.304688 145.867188 252.730469 144.589844 C 254.742188 143.527344 256.453125 142.613281 256.558594 142.59375 C 256.648438 142.550781 256.710938 144.976562 256.710938 148.011719 L 256.710938 153.496094 L 254.136719 154.863281 C 250.910156 156.554688 249.417969 157.074219 247.792969 157.074219 C 246.386719 157.074219 245.890625 156.878906 244.960938 156.011719 C 243.769531 154.929688 243.183594 153.171875 242.945312 150.117188 C 242.558594 145.128906 244.09375 139.710938 246.863281 136.21875 C 249.136719 133.378906 253.445312 131.058594 255.5 131.582031 C 256.515625 131.839844 257.554688 132.96875 257.925781 134.246094 C 258.117188 134.898438 258.292969 135.394531 258.335938 135.351562 C 258.355469 135.308594 259.136719 133.421875 260.066406 131.167969 C 262.40625 125.378906 262.273438 125.8125 261.691406 126.378906 Z M 261.691406 126.378906 " fill-opacity="1" fill-rule="nonzero"/><path fill="#000000" d="M 262.578125 127.417969 C 262.46875 127.699219 261.691406 129.609375 260.847656 131.667969 C 259.289062 135.503906 259.179688 135.828125 259.480469 135.828125 C 259.613281 135.828125 261.839844 130.582031 263.140625 127.203125 C 263.207031 127.070312 263.140625 126.941406 263.011719 126.941406 C 262.878906 126.941406 262.664062 127.160156 262.578125 127.417969 Z M 262.578125 127.417969 " fill-opacity="1" fill-rule="nonzero"/><path fill="#000000" d="M 117.433594 129.457031 C 116.609375 130.476562 115.894531 131.386719 115.851562 131.492188 C 115.789062 131.6875 116.847656 133.8125 119.421875 138.582031 L 120.375 140.339844 L 119.75 140.792969 L 119.121094 141.226562 L 116.589844 136.480469 C 115.203125 133.878906 114.078125 131.625 114.078125 131.472656 C 114.078125 131.34375 114.769531 130.453125 115.613281 129.519531 C 116.632812 128.394531 117.019531 127.808594 116.78125 127.808594 C 116.589844 127.808594 115.289062 128.089844 113.882812 128.460938 C 110.875 129.21875 104.011719 130.628906 103.320312 130.628906 C 102.5 130.628906 102.757812 130.953125 104.335938 131.949219 C 105.183594 132.46875 105.851562 132.96875 105.851562 133.054688 C 105.851562 133.164062 104.921875 135.375 103.773438 137.976562 L 101.675781 142.722656 L 100.09375 141.964844 C 98.644531 141.269531 98.0625 141.183594 98.0625 141.683594 C 98.0625 141.792969 98.753906 142.226562 99.574219 142.679688 C 101.132812 143.480469 101.285156 143.722656 100.832031 144.347656 C 100.570312 144.695312 100.421875 144.632812 98.882812 143.742188 C 97.972656 143.199219 97.128906 142.765625 97.023438 142.765625 C 96.914062 142.765625 96.699219 143.046875 96.546875 143.417969 C 96.394531 143.765625 95.851562 144.675781 95.332031 145.410156 L 94.402344 146.777344 L 96.222656 147.039062 C 97.238281 147.1875 98.300781 147.429688 98.582031 147.578125 L 99.121094 147.863281 L 98.40625 149.488281 C 95.289062 156.640625 92.714844 159.699219 88.234375 161.648438 C 87.585938 161.929688 87.023438 162.257812 87.023438 162.363281 C 87.023438 162.582031 97.953125 162.386719 100.789062 162.148438 L 102.347656 161.996094 L 101.003906 160.933594 C 98.191406 158.679688 98.0625 157.398438 100.140625 152.328125 C 100.832031 150.613281 101.523438 149.183594 101.675781 149.117188 C 101.828125 149.054688 102.171875 149.183594 102.453125 149.402344 L 102.972656 149.789062 L 102.023438 151.9375 C 100.441406 155.492188 100.074219 157.726562 100.765625 159.394531 C 100.941406 159.828125 101.785156 160.824219 102.605469 161.628906 L 104.121094 163.078125 L 103.472656 163.210938 C 102.433594 163.425781 91.136719 163.859375 89.683594 163.730469 C 88.925781 163.6875 88.320312 163.707031 88.320312 163.816406 C 88.320312 164.25 89.316406 164.445312 91.503906 164.445312 C 94.144531 164.445312 102.171875 164.078125 104.425781 163.839844 L 105.917969 163.6875 L 104.054688 161.996094 C 101.933594 160.066406 101.308594 159.003906 101.308594 157.355469 C 101.308594 156.011719 101.980469 153.78125 102.972656 151.808594 C 103.839844 150.050781 103.449219 149.921875 106.761719 153.152344 C 107.929688 154.277344 108.90625 155.167969 108.949219 155.101562 C 110.074219 153.496094 114.054688 149.207031 114.769531 148.816406 C 115.050781 148.664062 115.203125 148.730469 115.375 149.054688 C 115.59375 149.464844 115.398438 149.746094 113.710938 151.613281 C 111.871094 153.605469 110.441406 155.339844 110.09375 155.925781 C 110.007812 156.097656 110.074219 156.207031 110.246094 156.207031 C 110.441406 156.207031 111.070312 155.558594 111.695312 154.777344 C 113.296875 152.738281 115.851562 150.09375 116.027344 150.289062 C 116.113281 150.375 116.914062 151.894531 117.820312 153.648438 L 119.46875 156.816406 L 117.324219 158.613281 C 116.132812 159.609375 115.203125 160.433594 115.226562 160.457031 C 115.375 160.628906 127.34375 158.246094 130.203125 157.488281 L 131.066406 157.25 L 128.6875 156.292969 L 126.304688 155.339844 L 123.535156 149.8125 C 122.019531 146.777344 120.789062 144.175781 120.789062 144.046875 C 120.789062 143.742188 122.734375 142.875 124.445312 142.421875 C 126.242188 141.941406 126.394531 141.8125 125.832031 141.207031 C 125.3125 140.640625 124.421875 139.039062 124.054688 137.976562 L 123.816406 137.261719 L 122.519531 138.539062 C 121.804688 139.234375 121.175781 139.753906 121.113281 139.6875 C 121.023438 139.625 120.007812 137.738281 118.839844 135.503906 L 116.695312 131.449219 L 118.210938 129.652344 C 119.035156 128.675781 119.707031 127.808594 119.707031 127.722656 C 119.707031 127.65625 119.53125 127.59375 119.335938 127.613281 C 119.121094 127.613281 118.277344 128.4375 117.433594 129.457031 Z M 108.429688 135.785156 L 108.839844 136.589844 L 107.238281 140.164062 C 106.351562 142.136719 105.441406 144.15625 105.203125 144.675781 L 104.792969 145.585938 L 105.917969 146.300781 C 106.546875 146.710938 107.714844 147.601562 108.515625 148.296875 L 109.988281 149.53125 L 109.402344 150.160156 L 108.816406 150.765625 L 107.519531 149.574219 C 106.804688 148.902344 105.484375 147.816406 104.621094 147.144531 C 103.515625 146.320312 103.039062 145.824219 103.105469 145.605469 C 103.253906 145.171875 107.886719 134.960938 107.953125 134.960938 C 107.996094 134.960938 108.191406 135.332031 108.429688 135.785156 Z M 112.496094 143.460938 L 113.6875 145.800781 L 112.066406 147.40625 L 110.464844 149.03125 L 109.726562 148.273438 C 109.316406 147.839844 108.34375 147.015625 107.542969 146.410156 C 106.71875 145.824219 106.070312 145.214844 106.070312 145.066406 C 106.070312 144.914062 106.71875 143.394531 107.496094 141.660156 C 108.277344 139.949219 109.011719 138.300781 109.144531 137.996094 C 109.335938 137.5 109.402344 137.585938 110.3125 139.296875 C 110.851562 140.316406 111.828125 142.179688 112.496094 143.460938 Z M 112.496094 143.460938 " fill-opacity="1" fill-rule="nonzero"/><path fill="#000000" d="M 253.226562 132.578125 C 250.628906 133.359375 247.988281 135.785156 246.5625 138.691406 C 245.109375 141.617188 244.742188 143.375 244.722656 147.535156 C 244.699219 152.003906 245.089844 153.867188 246.410156 155.296875 C 247.125 156.097656 249.136719 156.945312 249.136719 156.445312 C 249.136719 156.335938 248.832031 156.1875 248.464844 156.097656 C 247.554688 155.902344 246.324219 154.777344 245.867188 153.714844 C 244.960938 151.675781 244.808594 145.84375 245.566406 142.226562 C 246.28125 138.777344 248.746094 135.265625 251.515625 133.769531 C 252.578125 133.183594 252.902344 133.121094 254.613281 133.121094 L 256.539062 133.121094 L 255.695312 132.75 C 254.808594 132.339844 254.136719 132.296875 253.226562 132.578125 Z M 253.226562 132.578125 " fill-opacity="1" fill-rule="nonzero"/><path fill="#000000" d="M 126.003906 138.582031 C 126.242188 139.167969 126.914062 140.316406 127.496094 141.183594 C 128.6875 142.941406 128.796875 142.765625 126.304688 143.199219 C 124.703125 143.480469 122.519531 144.21875 122.519531 144.457031 C 122.519531 144.542969 123.773438 146.996094 125.289062 149.921875 L 128.058594 155.230469 L 130.875 156.621094 C 133.101562 157.726562 133.578125 158.027344 133.234375 158.160156 C 132.476562 158.441406 124.921875 160.109375 121.046875 160.847656 C 117.410156 161.519531 116.308594 161.996094 118.515625 161.910156 C 120.160156 161.84375 131.78125 159.417969 135.179688 158.417969 C 135.808594 158.222656 135.65625 158.136719 132.476562 156.554688 C 130.636719 155.644531 129.011719 154.777344 128.882812 154.625 C 128.535156 154.257812 123.578125 144.652344 123.6875 144.566406 C 123.730469 144.5 125.074219 144.21875 126.675781 143.914062 C 128.253906 143.613281 129.640625 143.289062 129.746094 143.199219 C 129.835938 143.09375 129.53125 142.527344 129.035156 141.898438 C 128.535156 141.269531 127.777344 140.121094 127.34375 139.339844 C 126.523438 137.847656 126.285156 137.5625 125.832031 137.5625 C 125.636719 137.5625 125.699219 137.890625 126.003906 138.582031 Z M 126.003906 138.582031 " fill-opacity="1" fill-rule="nonzero"/><path fill="#000000" d="M 229.765625 141.378906 C 225.738281 143.242188 217.710938 146.515625 214.03125 147.773438 C 212.859375 148.1875 211.910156 148.578125 211.910156 148.640625 C 211.910156 148.707031 212.601562 149.074219 213.425781 149.488281 L 214.9375 150.222656 L 214.9375 159.609375 L 214.355469 159.871094 C 212.667969 160.628906 211.171875 162.234375 210.71875 163.796875 C 210.566406 164.25 210.675781 164.207031 211.585938 163.40625 C 212.148438 162.929688 213.097656 162.257812 213.707031 161.953125 C 214.679688 161.476562 214.832031 161.453125 214.894531 161.734375 C 215.027344 162.34375 214.789062 162.625 213.597656 163.296875 C 212.363281 164.011719 211.304688 165.007812 211.539062 165.246094 C 211.628906 165.3125 211.972656 165.140625 212.296875 164.835938 C 212.96875 164.207031 214.527344 163.144531 214.765625 163.144531 C 214.875 163.144531 214.9375 165.421875 214.9375 168.175781 L 214.9375 173.226562 L 213.402344 175.023438 C 212.558594 176.023438 211.886719 176.867188 211.953125 176.910156 C 212.058594 177.019531 218.855469 174.289062 222.515625 172.640625 C 226.238281 170.949219 235.066406 166.570312 235.066406 166.398438 C 235.066406 166.332031 234.636719 166.027344 234.09375 165.703125 C 232.945312 165.007812 231.972656 163.707031 231.582031 162.386719 C 231.433594 161.84375 231.238281 161.410156 231.171875 161.410156 C 231.105469 161.410156 230.585938 162.515625 229.980469 163.839844 C 228.378906 167.457031 226.625 169.0625 221.800781 171.316406 L 220.78125 171.792969 L 220.824219 166.246094 L 220.890625 160.671875 L 223.140625 159.699219 C 224.375 159.15625 225.242188 158.679688 225.046875 158.636719 C 224.832031 158.59375 223.703125 158.984375 222.515625 159.480469 L 220.351562 160.390625 L 220.351562 171.96875 L 219.808594 172.207031 C 219.503906 172.359375 219.203125 172.464844 219.136719 172.464844 C 219.09375 172.464844 219.074219 169.625 219.09375 166.136719 L 219.160156 159.804688 L 221.929688 158.636719 L 224.679688 157.441406 L 226 158.59375 C 226.714844 159.222656 227.339844 159.675781 227.40625 159.632812 C 227.449219 159.566406 227.472656 157.53125 227.449219 155.101562 L 227.382812 150.679688 L 226.238281 152.78125 C 225.585938 153.953125 224.917969 155.101562 224.722656 155.339844 C 224.527344 155.578125 223.554688 156.121094 222.578125 156.53125 L 220.78125 157.269531 L 220.78125 148.902344 L 222.902344 147.90625 C 225.933594 146.472656 226.734375 146.300781 228.035156 146.734375 C 229.398438 147.210938 229.679688 147.1875 229.007812 146.667969 C 227.773438 145.695312 226.476562 145.867188 222.6875 147.472656 L 220.351562 148.445312 L 220.351562 157.441406 L 219.808594 157.683594 C 219.503906 157.832031 219.203125 157.941406 219.160156 157.941406 C 219.09375 157.941406 219.050781 155.664062 219.050781 152.890625 L 219.050781 147.863281 L 221.757812 146.710938 C 224.894531 145.390625 226.820312 144.847656 227.707031 145.042969 C 228.292969 145.171875 229.546875 146.34375 230.046875 147.234375 C 230.328125 147.730469 230.304688 147.773438 231.0625 145.800781 C 231.386719 144.914062 232.1875 143.136719 232.839844 141.835938 C 233.464844 140.554688 233.921875 139.535156 233.835938 139.535156 C 233.726562 139.558594 231.90625 140.382812 229.765625 141.378906 Z M 229.765625 141.378906 " fill-opacity="1" fill-rule="nonzero"/><path fill="#000000" d="M 234.355469 140.816406 C 232.988281 143.179688 231.042969 147.863281 231.367188 148.054688 C 231.476562 148.121094 231.757812 147.601562 232.015625 146.90625 C 232.277344 146.214844 233.054688 144.4375 233.789062 142.984375 C 235.066406 140.339844 235.4375 138.972656 234.355469 140.816406 Z M 234.355469 140.816406 " fill-opacity="1" fill-rule="nonzero"/><path fill="#000000" d="M 205.738281 150.246094 C 204.3125 150.65625 202.386719 151.136719 201.453125 151.328125 L 199.746094 151.699219 L 200.890625 152.285156 C 201.585938 152.628906 202.191406 153.128906 202.429688 153.542969 C 203.054688 154.601562 203.273438 157.488281 203.207031 164.230469 L 203.144531 170.40625 L 201.066406 166.503906 C 197.730469 160.285156 195.242188 155.425781 195.265625 155.210938 C 195.265625 155.101562 195.804688 154.582031 196.433594 154.039062 C 197.492188 153.171875 197.925781 152.523438 197.472656 152.523438 C 197.363281 152.523438 196.648438 153.128906 195.847656 153.886719 L 194.421875 155.230469 L 196.800781 159.785156 C 198.101562 162.277344 200.089844 166.050781 201.214844 168.128906 C 203.1875 171.773438 203.273438 171.96875 203.207031 173.117188 L 203.144531 174.308594 L 201.605469 171.492188 C 198.488281 165.8125 193.078125 155.320312 193.078125 154.949219 C 193.078125 154.84375 193.707031 154.257812 194.484375 153.605469 C 195.265625 152.976562 195.871094 152.4375 195.847656 152.414062 C 195.804688 152.390625 195.113281 152.457031 194.269531 152.566406 C 193.445312 152.675781 191.128906 152.890625 189.140625 153.019531 L 185.546875 153.28125 L 186.929688 154.472656 L 188.296875 155.664062 L 188.316406 165.203125 C 188.316406 170.449219 188.207031 175.675781 188.101562 176.800781 C 187.796875 179.554688 187.125 180.941406 185.503906 182.09375 L 184.3125 182.914062 L 187.019531 182.785156 C 188.511719 182.699219 190.632812 182.523438 191.738281 182.375 L 193.75 182.09375 L 194.183594 182.675781 C 194.570312 183.242188 194.570312 183.285156 194.226562 183.390625 C 193.683594 183.542969 188.578125 184.128906 186.28125 184.304688 C 184.941406 184.390625 184.441406 184.5 184.617188 184.671875 C 184.960938 185.019531 194.074219 184.152344 195.652344 183.609375 C 196.195312 183.4375 194.464844 181.875 193.382812 181.570312 C 192.863281 181.417969 192.082031 180.984375 191.648438 180.617188 C 190.265625 179.402344 190.199219 178.863281 190.113281 167.914062 L 190.046875 158.265625 L 190.589844 159.242188 L 191.109375 160.21875 L 191.128906 168.757812 C 191.128906 176.042969 191.171875 177.496094 191.5 178.601562 C 191.84375 179.859375 192.925781 181.355469 193.488281 181.355469 C 193.640625 181.355469 193.46875 181.117188 193.121094 180.8125 C 191.738281 179.640625 191.691406 179.316406 191.628906 169.972656 L 191.5625 161.519531 L 194.378906 167.046875 C 197.167969 172.464844 200.632812 179.058594 201.214844 179.988281 L 201.519531 180.464844 L 203.292969 179.96875 L 205.089844 179.492188 L 205.199219 167.132812 C 205.285156 159.070312 205.394531 154.558594 205.566406 154.125 C 206.023438 152.824219 206.585938 151.980469 207.753906 150.746094 C 208.402344 150.050781 208.8125 149.507812 208.640625 149.507812 C 208.46875 149.53125 207.167969 149.855469 205.738281 150.246094 Z M 205.738281 150.246094 " fill-opacity="1" fill-rule="nonzero"/><path fill="#000000" d="M 228.574219 155.339844 C 228.574219 158.375 228.660156 160.109375 228.792969 160.109375 C 228.921875 160.109375 229.007812 158.375 229.007812 155.339844 C 229.007812 152.304688 228.921875 150.570312 228.792969 150.570312 C 228.660156 150.570312 228.574219 152.304688 228.574219 155.339844 Z M 228.574219 155.339844 " fill-opacity="1" fill-rule="nonzero"/><path fill="#000000" d="M 209.289062 151.15625 C 208.316406 151.808594 207.535156 152.628906 207.082031 153.496094 C 206.605469 154.363281 206.605469 154.515625 206.542969 167.394531 L 206.476562 180.421875 L 204.808594 180.898438 C 202.105469 181.679688 202.015625 181.722656 202.386719 181.875 C 202.582031 181.960938 203.640625 181.746094 204.765625 181.417969 L 206.824219 180.8125 L 206.929688 167.699219 C 207.058594 152.804688 206.929688 153.734375 208.898438 152.046875 C 210.046875 151.046875 210.308594 150.460938 209.289062 151.15625 Z M 209.289062 151.15625 " fill-opacity="1" fill-rule="nonzero"/><path fill="#000000" d="M 177.0625 161 C 174.160156 162.148438 171.652344 163.125 167.214844 164.835938 C 165.675781 165.441406 160.851562 167.308594 156.5 168.996094 C 152.148438 170.6875 147.625 172.445312 146.433594 172.898438 C 145.246094 173.355469 140.722656 175.109375 136.371094 176.800781 C 132.019531 178.492188 127.496094 180.25 126.304688 180.703125 C 125.117188 181.160156 120.59375 182.914062 116.242188 184.605469 C 111.890625 186.296875 108.082031 187.773438 107.757812 187.902344 C 107.152344 188.117188 107.152344 188.140625 107.152344 190.046875 C 107.152344 191.457031 107.214844 191.976562 107.433594 191.976562 C 107.5625 191.976562 110.226562 191 113.320312 189.789062 C 116.414062 188.59375 121.199219 186.730469 123.925781 185.691406 C 126.675781 184.628906 130.265625 183.21875 131.933594 182.589844 C 133.601562 181.941406 138.277344 180.117188 142.324219 178.535156 C 146.371094 176.976562 151.933594 174.808594 154.660156 173.765625 C 157.410156 172.703125 161.933594 170.949219 164.726562 169.863281 C 167.515625 168.757812 170.9375 167.4375 172.300781 166.917969 C 173.664062 166.398438 176 165.484375 177.496094 164.921875 L 180.199219 163.882812 L 180.265625 161.886719 C 180.308594 160.371094 180.265625 159.894531 180.046875 159.914062 C 179.898438 159.9375 178.554688 160.414062 177.0625 161 Z M 177.0625 161 " fill-opacity="1" fill-rule="nonzero"/><path fill="#000000" d="M 232.925781 162.105469 C 233.421875 163.015625 235.285156 164.8125 236.148438 165.203125 C 236.800781 165.507812 236.996094 165.703125 236.886719 165.941406 C 236.820312 166.136719 236.667969 166.546875 236.539062 166.875 C 236.367188 167.371094 235.414062 167.914062 230.457031 170.386719 C 224.3125 173.421875 220.5 175.15625 216.128906 176.910156 C 213.445312 177.996094 212.839844 178.320312 213.511719 178.320312 C 215.132812 178.320312 235.957031 168.519531 236.691406 167.414062 C 236.863281 167.15625 237.144531 166.589844 237.320312 166.15625 L 237.644531 165.398438 L 236.195312 164.421875 C 235.390625 163.902344 234.460938 163.058594 234.09375 162.558594 C 233.378906 161.582031 232.449219 161.214844 232.925781 162.105469 Z M 232.925781 162.105469 " fill-opacity="1" fill-rule="nonzero"/><path fill="#000000" d="M 177.925781 168.695312 C 176.066406 169.453125 173.015625 170.644531 165.914062 173.378906 C 161.003906 175.285156 143.601562 182.027344 136.585938 184.757812 C 133.664062 185.886719 130.460938 187.144531 129.445312 187.53125 C 128.425781 187.921875 125.222656 189.179688 122.300781 190.308594 C 115.65625 192.886719 110.375 194.945312 104.078125 197.351562 C 100.441406 198.742188 99.144531 199.328125 99.144531 199.585938 C 99.144531 199.78125 98.839844 200.0625 98.449219 200.238281 C 97.367188 200.691406 94.621094 202.535156 92.867188 204.03125 C 86.027344 209.796875 82.867188 218.46875 84.859375 226.035156 C 87.152344 234.769531 97.542969 241.035156 108.773438 240.449219 C 119.335938 239.910156 127.996094 233.773438 130.546875 225.035156 C 131.21875 222.761719 131.261719 218.597656 130.65625 216.582031 C 129.164062 211.660156 125.3125 208.042969 120.136719 206.71875 C 116.546875 205.785156 112.433594 205.9375 107.84375 207.175781 C 102.824219 208.519531 99.1875 212.269531 98.125 217.210938 C 97.304688 221.113281 98.753906 225.644531 101.609375 228.09375 C 102.910156 229.199219 105.289062 230.304688 107.042969 230.585938 C 111.070312 231.257812 116.199219 228.808594 117.886719 225.425781 C 118.472656 224.257812 118.449219 221.285156 117.886719 219.941406 C 117.195312 218.339844 116.480469 217.535156 115.226562 216.972656 C 113.277344 216.082031 111.480469 216.605469 111.480469 218.054688 C 111.480469 218.921875 112.824219 220.222656 114.140625 220.613281 C 115.246094 220.917969 115.375 221.15625 115.375 222.824219 C 115.375 224.214844 114.75 225.363281 113.492188 226.292969 C 111.589844 227.683594 111.113281 227.832031 108.992188 227.855469 C 107.238281 227.855469 106.933594 227.789062 105.875 227.203125 C 103.710938 225.992188 102 223.300781 101.804688 220.746094 C 101.632812 218.554688 102.84375 215.671875 104.8125 213.527344 C 106.695312 211.488281 109.855469 209.992188 113.234375 209.535156 C 116.371094 209.125 120.875 210.058594 122.820312 211.554688 C 124.703125 213.003906 125.917969 214.675781 126.675781 216.886719 C 127.410156 219.011719 127.367188 222.414062 126.566406 224.84375 C 124.898438 229.9375 120.355469 234.140625 114.445312 236.070312 C 112.019531 236.875 109.683594 237.132812 106.328125 237.023438 C 102.605469 236.894531 100.507812 236.375 97.304688 234.792969 C 90.722656 231.5625 87.433594 225.96875 88.300781 219.488281 C 89.164062 212.941406 93.167969 207.324219 99.683594 203.53125 C 101.179688 202.664062 104.769531 201.167969 116.351562 196.679688 C 119.574219 195.425781 124.640625 193.453125 127.605469 192.300781 C 130.59375 191.152344 133.839844 189.875 134.855469 189.484375 C 135.875 189.09375 139.078125 187.835938 142 186.710938 C 144.921875 185.582031 149.488281 183.804688 152.171875 182.765625 C 154.855469 181.722656 159.378906 179.96875 162.234375 178.863281 C 165.09375 177.757812 169.875 175.914062 172.839844 174.765625 C 175.828125 173.617188 178.683594 172.488281 179.226562 172.269531 L 180.199219 171.902344 L 180.265625 169.910156 C 180.308594 168.390625 180.265625 167.914062 180.046875 167.9375 C 179.898438 167.957031 178.945312 168.28125 177.925781 168.695312 Z M 177.925781 168.695312 " fill-opacity="1" fill-rule="nonzero"/><path fill="#000000" d="M 267.425781 195.964844 C 266.558594 196.59375 267.816406 197.460938 269.027344 197.050781 C 269.785156 196.789062 269.894531 195.988281 269.222656 195.792969 C 268.441406 195.597656 267.859375 195.640625 267.425781 195.964844 Z M 267.425781 195.964844 " fill-opacity="1" fill-rule="nonzero"/><path fill="#000000" d="M 310.714844 195.964844 C 309.847656 196.59375 311.101562 197.460938 312.316406 197.050781 C 313.074219 196.789062 313.179688 195.988281 312.511719 195.792969 C 311.730469 195.597656 311.148438 195.640625 310.714844 195.964844 Z M 310.714844 195.964844 " fill-opacity="1" fill-rule="nonzero"/><path fill="#000000" d="M 139.835938 199.867188 L 139.835938 203.46875 L 143.082031 203.46875 L 143.082031 202.730469 C 143.082031 202.101562 143.144531 202.015625 143.511719 202.101562 C 144.855469 202.449219 146.609375 201.386719 146.976562 199.976562 C 147.171875 199.261719 147.148438 198.957031 146.78125 198.175781 C 146.175781 196.769531 145.460938 196.488281 142.386719 196.355469 L 139.835938 196.246094 Z M 144.964844 196.984375 C 147.777344 198.046875 147 201.734375 143.96875 201.734375 L 143.082031 201.734375 L 143.082031 196.746094 L 143.707031 196.746094 C 144.054688 196.746094 144.617188 196.855469 144.964844 196.984375 Z M 144.964844 196.984375 " fill-opacity="1" fill-rule="nonzero"/><path fill="#000000" d="M 156.285156 199.890625 L 156.285156 203.46875 L 158.878906 203.46875 L 158.878906 196.3125 L 156.285156 196.3125 Z M 156.285156 199.890625 " fill-opacity="1" fill-rule="nonzero"/><path fill="#000000" d="M 196.324219 196.378906 C 196.324219 196.421875 195.890625 197.917969 195.351562 199.695312 C 194.332031 203.097656 194.246094 203.46875 194.570312 203.46875 C 194.679688 203.46875 194.941406 202.730469 195.15625 201.839844 C 195.371094 200.953125 195.609375 200.214844 195.699219 200.214844 C 195.785156 200.214844 196.304688 200.867188 196.867188 201.644531 L 197.882812 203.078125 L 198.902344 201.539062 C 199.441406 200.691406 199.960938 200 200.027344 200 C 200.113281 200 200.328125 200.648438 200.523438 201.472656 C 200.742188 202.273438 200.980469 203.054688 201.066406 203.207031 C 201.171875 203.402344 201.691406 203.46875 202.753906 203.421875 L 204.246094 203.359375 L 203.230469 199.933594 C 202.667969 198.027344 202.148438 196.441406 202.105469 196.378906 C 202.039062 196.335938 201.390625 197.179688 200.652344 198.265625 L 199.3125 200.257812 L 197.992188 198.285156 C 196.867188 196.636719 196.324219 196.03125 196.324219 196.378906 Z M 196.324219 196.378906 " fill-opacity="1" fill-rule="nonzero"/><path fill="#000000" d="M 232.253906 199.890625 L 232.253906 203.46875 L 234.851562 203.46875 L 234.851562 196.3125 L 232.253906 196.3125 Z M 232.253906 199.890625 " fill-opacity="1" fill-rule="nonzero"/><path fill="#000000" d="M 259.957031 199.890625 L 259.957031 203.46875 L 263.207031 203.46875 C 265.21875 203.46875 266.453125 203.378906 266.453125 203.25 C 266.453125 203.121094 265.757812 203.035156 264.828125 203.035156 L 263.207031 203.035156 L 263.207031 196.3125 L 259.957031 196.3125 Z M 259.957031 199.890625 " fill-opacity="1" fill-rule="nonzero"/><path fill="#000000" d="M 303.464844 199.890625 L 303.464844 203.46875 L 306.710938 203.46875 L 306.710938 198.699219 L 308.226562 198.699219 C 309.089844 198.699219 309.738281 198.609375 309.738281 198.480469 C 309.738281 198.351562 309.089844 198.265625 308.226562 198.265625 L 306.710938 198.265625 L 306.710938 196.746094 L 308.117188 196.746094 C 308.917969 196.746094 309.523438 196.660156 309.523438 196.53125 C 309.523438 196.398438 308.375 196.3125 306.492188 196.3125 L 303.464844 196.3125 Z M 303.464844 199.890625 " fill-opacity="1" fill-rule="nonzero"/><path fill="#000000" d="M 161.089844 197.679688 C 158.878906 198.914062 159.726562 203.035156 162.171875 203.035156 C 162.453125 203.035156 162.949219 202.882812 163.296875 202.707031 C 164.097656 202.273438 164.074219 202.273438 164.074219 203.140625 L 164.074219 203.902344 L 166.867188 203.902344 L 166.867188 197.613281 L 165.460938 197.613281 C 164.703125 197.613281 164.074219 197.699219 164.074219 197.808594 C 164.074219 197.9375 163.730469 197.875 163.316406 197.699219 C 162.410156 197.332031 161.738281 197.332031 161.089844 197.679688 Z M 163.597656 198.175781 C 164.03125 198.460938 164.074219 198.699219 164.074219 200.214844 C 164.074219 201.796875 164.03125 201.972656 163.535156 202.296875 C 163.253906 202.46875 162.90625 202.578125 162.777344 202.492188 C 162.539062 202.339844 162.472656 198.21875 162.710938 197.980469 C 162.90625 197.765625 163.058594 197.785156 163.597656 198.175781 Z M 163.597656 198.175781 " fill-opacity="1" fill-rule="nonzero"/><path fill="#000000" d="M 177.496094 197.765625 C 176.476562 198.285156 175.699219 199.804688 175.828125 200.929688 C 176.023438 202.449219 177.039062 203.46875 178.511719 203.574219 C 178.964844 203.597656 179.117188 203.574219 178.859375 203.53125 C 178.402344 203.445312 178.359375 203.316406 178.359375 202.035156 L 178.359375 200.648438 L 181.886719 200.648438 L 181.738281 199.953125 C 181.347656 197.9375 179.246094 196.855469 177.496094 197.765625 Z M 179.617188 199.066406 L 179.679688 200.433594 L 178.359375 200.433594 L 178.359375 199.175781 C 178.359375 197.765625 178.46875 197.570312 179.117188 197.65625 C 179.484375 197.722656 179.550781 197.894531 179.617188 199.066406 Z M 179.617188 199.066406 " fill-opacity="1" fill-rule="nonzero"/><path fill="#000000" d="M 183.578125 197.679688 C 183.296875 197.808594 182.863281 198.199219 182.625 198.523438 C 182.0625 199.261719 182.257812 199.761719 183.773438 201.492188 C 184.378906 202.1875 184.855469 202.902344 184.855469 203.097656 C 184.855469 203.597656 184.054688 203.574219 183.1875 203.035156 C 182.796875 202.792969 182.472656 202.707031 182.472656 202.839844 C 182.472656 203.121094 183.816406 203.683594 184.527344 203.683594 C 185.417969 203.683594 186.5625 203.097656 186.824219 202.511719 C 187.191406 201.6875 186.910156 200.972656 185.609375 199.566406 C 184.960938 198.847656 184.421875 198.15625 184.421875 198.046875 C 184.421875 197.613281 185.113281 197.546875 185.871094 197.917969 C 186.390625 198.175781 186.605469 198.199219 186.542969 198.003906 C 186.347656 197.441406 184.441406 197.222656 183.578125 197.679688 Z M 183.578125 197.679688 " fill-opacity="1" fill-rule="nonzero"/><path fill="#000000" d="M 206.28125 197.765625 C 205.265625 198.285156 204.484375 199.804688 204.613281 200.929688 C 204.808594 202.449219 205.828125 203.46875 207.296875 203.574219 C 207.753906 203.597656 207.90625 203.574219 207.644531 203.53125 C 207.191406 203.445312 207.148438 203.316406 207.148438 202.035156 L 207.148438 200.648438 L 210.675781 200.648438 L 210.523438 199.953125 C 210.132812 197.9375 208.035156 196.855469 206.28125 197.765625 Z M 208.402344 199.066406 L 208.46875 200.433594 L 207.148438 200.433594 L 207.148438 199.175781 C 207.148438 197.765625 207.253906 197.570312 207.90625 197.65625 C 208.273438 197.722656 208.335938 197.894531 208.402344 199.066406 Z M 208.402344 199.066406 " fill-opacity="1" fill-rule="nonzero"/><path fill="#000000" d="M 219.9375 197.785156 C 218.921875 198.285156 218.378906 199.109375 218.25 200.238281 C 218.078125 202.058594 219.289062 203.445312 221.128906 203.597656 C 221.863281 203.640625 222.015625 203.617188 221.648438 203.511719 C 221.128906 203.335938 221.109375 203.292969 221.042969 200.972656 C 220.976562 198.132812 221.0625 197.679688 221.714844 197.546875 C 222.015625 197.484375 221.929688 197.441406 221.433594 197.417969 C 221.019531 197.417969 220.351562 197.570312 219.9375 197.785156 Z M 219.9375 197.785156 " fill-opacity="1" fill-rule="nonzero"/><path fill="#000000" d="M 227.167969 197.546875 C 228.140625 197.699219 228.359375 198.003906 228.359375 199.152344 L 228.359375 200.214844 L 227.621094 199.867188 C 226.605469 199.371094 225.5 199.609375 224.808594 200.453125 C 224.160156 201.210938 224.117188 201.710938 224.570312 202.578125 C 225.132812 203.707031 226.996094 203.988281 227.96875 203.097656 C 228.335938 202.773438 228.359375 202.773438 228.359375 203.097656 C 228.359375 203.402344 228.597656 203.46875 229.722656 203.46875 L 231.105469 203.46875 L 231.019531 201.234375 C 230.976562 200.019531 230.890625 198.828125 230.847656 198.566406 C 230.71875 197.9375 229.808594 197.59375 228.035156 197.503906 C 227.210938 197.460938 226.820312 197.484375 227.167969 197.546875 Z M 228.121094 200.519531 C 228.488281 200.953125 228.335938 202.621094 227.902344 202.882812 C 227.210938 203.316406 226.84375 202.902344 226.84375 201.667969 C 226.84375 201.015625 226.90625 200.433594 226.996094 200.367188 C 227.234375 200.105469 227.859375 200.195312 228.121094 200.519531 Z M 228.121094 200.519531 " fill-opacity="1" fill-rule="nonzero"/><path fill="#000000" d="M 237.449219 197.765625 C 236.429688 198.285156 235.652344 199.804688 235.78125 200.929688 C 235.976562 202.449219 236.996094 203.46875 238.464844 203.574219 C 238.921875 203.597656 239.070312 203.574219 238.8125 203.53125 C 238.359375 203.445312 238.316406 203.316406 238.316406 202.035156 L 238.316406 200.648438 L 241.84375 200.648438 L 241.691406 199.953125 C 241.300781 197.9375 239.203125 196.855469 237.449219 197.765625 Z M 239.570312 199.066406 L 239.636719 200.433594 L 238.316406 200.433594 L 238.316406 199.175781 C 238.316406 197.765625 238.421875 197.570312 239.070312 197.65625 C 239.441406 197.722656 239.503906 197.894531 239.570312 199.066406 Z M 239.570312 199.066406 " fill-opacity="1" fill-rule="nonzero"/><path fill="#000000" d="M 243.53125 197.679688 C 243.25 197.808594 242.816406 198.199219 242.578125 198.523438 C 242.015625 199.261719 242.210938 199.761719 243.726562 201.492188 C 244.332031 202.1875 244.808594 202.902344 244.808594 203.097656 C 244.808594 203.597656 244.007812 203.574219 243.140625 203.035156 C 242.75 202.792969 242.425781 202.707031 242.425781 202.839844 C 242.425781 203.121094 243.769531 203.683594 244.484375 203.683594 C 245.371094 203.683594 246.519531 203.097656 246.777344 202.511719 C 247.144531 201.6875 246.863281 200.972656 245.566406 199.566406 C 244.914062 198.847656 244.375 198.15625 244.375 198.046875 C 244.375 197.613281 245.066406 197.546875 245.824219 197.917969 C 246.34375 198.175781 246.5625 198.199219 246.496094 198.003906 C 246.300781 197.441406 244.398438 197.222656 243.53125 197.679688 Z M 243.53125 197.679688 " fill-opacity="1" fill-rule="nonzero"/><path fill="#000000" d="M 255.542969 198.71875 L 254.675781 200.0625 L 254.179688 199.433594 C 253.917969 199.085938 253.574219 198.546875 253.445312 198.21875 C 253.207031 197.636719 253.140625 197.613281 251.472656 197.613281 L 249.765625 197.613281 L 251.429688 200 C 252.816406 202.035156 253.03125 202.449219 252.792969 202.730469 C 252.597656 202.96875 252.316406 203.035156 251.90625 202.945312 C 251.453125 202.859375 251.300781 202.902344 251.300781 203.140625 C 251.300781 203.574219 252.144531 203.554688 252.75 203.140625 C 253.183594 202.839844 256.386719 198.351562 256.648438 197.679688 C 256.929688 196.941406 256.300781 197.527344 255.542969 198.71875 Z M 255.542969 198.71875 " fill-opacity="1" fill-rule="nonzero"/><path fill="#000000" d="M 272.316406 197.785156 C 271.300781 198.285156 270.757812 199.109375 270.628906 200.238281 C 270.457031 202.058594 271.667969 203.445312 273.507812 203.597656 C 274.242188 203.640625 274.394531 203.617188 274.027344 203.511719 C 273.507812 203.335938 273.484375 203.292969 273.421875 200.972656 C 273.355469 198.132812 273.441406 197.679688 274.09375 197.546875 C 274.394531 197.484375 274.308594 197.441406 273.8125 197.417969 C 273.398438 197.417969 272.730469 197.570312 272.316406 197.785156 Z M 272.316406 197.785156 " fill-opacity="1" fill-rule="nonzero"/><path fill="#000000" d="M 278.59375 197.785156 C 275.886719 199.152344 276.582031 203.335938 279.566406 203.574219 C 280.023438 203.597656 280.238281 203.597656 280.042969 203.53125 C 279.699219 203.445312 279.65625 203.121094 279.65625 200.539062 C 279.65625 197.699219 279.675781 197.636719 280.152344 197.546875 C 280.519531 197.484375 280.5 197.441406 279.980469 197.417969 C 279.632812 197.417969 279.003906 197.570312 278.59375 197.785156 Z M 278.59375 197.785156 " fill-opacity="1" fill-rule="nonzero"/><path fill="#000000" d="M 287.53125 197.613281 C 287.273438 197.722656 286.992188 197.894531 286.90625 198.027344 C 286.710938 198.371094 286.363281 198.308594 286.363281 197.9375 C 286.363281 197.679688 286.082031 197.613281 285.066406 197.613281 L 283.765625 197.613281 L 283.765625 203.46875 L 286.363281 203.46875 L 286.363281 201.210938 C 286.363281 199.085938 286.386719 198.9375 286.925781 198.394531 C 287.578125 197.765625 287.707031 197.722656 288.3125 198.089844 C 288.789062 198.394531 289.070312 198.21875 288.898438 197.722656 C 288.746094 197.375 288.246094 197.308594 287.53125 197.613281 Z M 287.53125 197.613281 " fill-opacity="1" fill-rule="nonzero"/><path fill="#000000" d="M 290.261719 197.765625 C 289.242188 198.285156 288.464844 199.804688 288.59375 200.929688 C 288.789062 202.449219 289.804688 203.46875 291.277344 203.574219 C 291.730469 203.597656 291.882812 203.574219 291.625 203.53125 C 291.167969 203.445312 291.125 203.316406 291.125 202.035156 L 291.125 200.648438 L 294.652344 200.648438 L 294.503906 199.953125 C 294.113281 197.9375 292.011719 196.855469 290.261719 197.765625 Z M 292.382812 199.066406 L 292.445312 200.433594 L 291.125 200.433594 L 291.125 199.175781 C 291.125 197.765625 291.234375 197.570312 291.882812 197.65625 C 292.25 197.722656 292.316406 197.894531 292.382812 199.066406 Z M 292.382812 199.066406 " fill-opacity="1" fill-rule="nonzero"/><path fill="#000000" d="M 296.34375 197.679688 C 296.0625 197.808594 295.628906 198.199219 295.390625 198.523438 C 294.828125 199.261719 295.023438 199.761719 296.535156 201.492188 C 297.144531 202.1875 297.621094 202.902344 297.621094 203.097656 C 297.621094 203.597656 296.820312 203.574219 295.953125 203.035156 C 295.5625 202.792969 295.238281 202.707031 295.238281 202.839844 C 295.238281 203.121094 296.582031 203.683594 297.292969 203.683594 C 298.183594 203.683594 299.328125 203.097656 299.589844 202.511719 C 299.957031 201.6875 299.675781 200.972656 298.375 199.566406 C 297.726562 198.847656 297.1875 198.15625 297.1875 198.046875 C 297.1875 197.613281 297.878906 197.546875 298.636719 197.917969 C 299.15625 198.175781 299.371094 198.199219 299.308594 198.003906 C 299.113281 197.441406 297.207031 197.222656 296.34375 197.679688 Z M 296.34375 197.679688 " fill-opacity="1" fill-rule="nonzero"/><path fill="#000000" d="M 317.8125 197.808594 C 317.054688 198.15625 316.882812 198.175781 316.882812 197.9375 C 316.882812 197.679688 316.578125 197.613281 315.582031 197.613281 L 314.285156 197.613281 L 314.285156 203.46875 L 316.882812 203.46875 L 316.882812 201.082031 C 316.882812 198.785156 316.902344 198.699219 317.421875 198.351562 C 318.460938 197.679688 318.613281 197.980469 318.613281 200.867188 L 318.613281 203.46875 L 321.210938 203.46875 L 321.210938 200.996094 C 321.210938 198.957031 321.144531 198.4375 320.820312 198.046875 C 320.28125 197.375 318.960938 197.265625 317.8125 197.808594 Z M 317.8125 197.808594 " fill-opacity="1" fill-rule="nonzero"/><path fill="#000000" d="M 323.832031 197.785156 C 321.125 199.152344 321.816406 203.335938 324.804688 203.574219 C 325.257812 203.597656 325.476562 203.597656 325.28125 203.53125 C 324.933594 203.445312 324.890625 203.121094 324.890625 200.539062 C 324.890625 197.699219 324.914062 197.636719 325.386719 197.546875 C 325.757812 197.484375 325.734375 197.441406 325.214844 197.417969 C 324.867188 197.417969 324.242188 197.570312 323.832031 197.785156 Z M 323.832031 197.785156 " fill-opacity="1" fill-rule="nonzero"/><path fill="#000000" d="M 329.890625 197.679688 C 329.609375 197.808594 329.175781 198.199219 328.9375 198.523438 C 328.375 199.261719 328.570312 199.761719 330.085938 201.492188 C 330.691406 202.1875 331.167969 202.902344 331.167969 203.097656 C 331.167969 203.597656 330.367188 203.574219 329.5 203.035156 C 329.113281 202.792969 328.785156 202.707031 328.785156 202.839844 C 328.785156 203.121094 330.128906 203.683594 330.84375 203.683594 C 331.730469 203.683594 332.878906 203.097656 333.136719 202.511719 C 333.503906 201.6875 333.222656 200.972656 331.925781 199.566406 C 331.277344 198.847656 330.734375 198.15625 330.734375 198.046875 C 330.734375 197.613281 331.425781 197.546875 332.183594 197.917969 C 332.703125 198.175781 332.921875 198.199219 332.855469 198.003906 C 332.660156 197.441406 330.757812 197.222656 329.890625 197.679688 Z M 329.890625 197.679688 " fill-opacity="1" fill-rule="nonzero"/><path fill="#000000" d="M 148.058594 200.042969 C 148.058594 201.386719 148.144531 202.601562 148.230469 202.730469 C 148.707031 203.46875 150.007812 203.640625 151.371094 203.164062 C 152.042969 202.902344 152.171875 202.902344 152.171875 203.164062 C 152.171875 203.402344 152.515625 203.46875 153.578125 203.46875 L 154.984375 203.46875 L 154.984375 197.613281 L 152.257812 197.613281 L 152.28125 200.019531 C 152.28125 202.144531 152.234375 202.449219 151.867188 202.730469 C 151.628906 202.902344 151.261719 203.035156 151.046875 203.035156 C 150.699219 203.035156 150.65625 202.792969 150.65625 200.324219 L 150.65625 197.613281 L 148.058594 197.613281 Z M 148.058594 200.042969 " fill-opacity="1" fill-rule="nonzero"/><path fill="#000000" d="M 168.1875 200.042969 C 168.1875 201.386719 168.273438 202.601562 168.359375 202.730469 C 168.835938 203.46875 170.136719 203.640625 171.5 203.164062 C 172.171875 202.902344 172.300781 202.902344 172.300781 203.164062 C 172.300781 203.402344 172.644531 203.46875 173.707031 203.46875 L 175.113281 203.46875 L 175.113281 197.613281 L 172.386719 197.613281 L 172.410156 200.019531 C 172.410156 202.144531 172.363281 202.449219 171.996094 202.730469 C 171.757812 202.902344 171.390625 203.035156 171.175781 203.035156 C 170.828125 203.035156 170.785156 202.792969 170.785156 200.324219 L 170.785156 197.613281 L 168.1875 197.613281 Z M 168.1875 200.042969 " fill-opacity="1" fill-rule="nonzero"/><path fill="#000000" d="M 212.949219 197.808594 L 214.550781 197.9375 L 212.710938 200.691406 L 210.890625 203.46875 L 214.375 203.421875 C 216.300781 203.402344 217.058594 203.335938 216.085938 203.316406 C 215.089844 203.273438 214.289062 203.183594 214.289062 203.121094 C 214.289062 203.078125 215.070312 201.863281 216.019531 200.433594 C 216.972656 199 217.753906 197.785156 217.753906 197.722656 C 217.753906 197.65625 216.324219 197.636719 214.570312 197.65625 C 212.082031 197.679688 211.734375 197.722656 212.949219 197.808594 Z M 212.949219 197.808594 " fill-opacity="1" fill-rule="nonzero"/><path fill="#000000" d="M 222.945312 198.175781 C 223.316406 198.503906 223.683594 198.675781 223.769531 198.609375 C 223.941406 198.414062 222.96875 197.636719 222.558594 197.613281 C 222.382812 197.613281 222.578125 197.875 222.945312 198.175781 Z M 222.945312 198.175781 " fill-opacity="1" fill-rule="nonzero"/><path fill="#000000" d="M 225.414062 197.917969 C 225.199219 198.089844 225.070312 198.285156 225.15625 198.371094 C 225.242188 198.460938 225.566406 198.328125 225.890625 198.070312 C 226.539062 197.546875 226.105469 197.417969 225.414062 197.917969 Z M 225.414062 197.917969 " fill-opacity="1" fill-rule="nonzero"/><path fill="#000000" d="M 267.101562 200.539062 L 267.101562 203.46875 L 269.699219 203.46875 L 269.699219 197.613281 L 267.101562 197.613281 Z M 267.101562 200.539062 " fill-opacity="1" fill-rule="nonzero"/><path fill="#000000" d="M 275.324219 198.175781 C 275.695312 198.503906 276.0625 198.675781 276.148438 198.609375 C 276.320312 198.414062 275.347656 197.636719 274.9375 197.613281 C 274.761719 197.613281 274.957031 197.875 275.324219 198.175781 Z M 275.324219 198.175781 " fill-opacity="1" fill-rule="nonzero"/><path fill="#000000" d="M 281.625 198.460938 C 282.382812 199.21875 282.46875 199.414062 282.46875 200.433594 C 282.46875 201.6875 282.058594 202.578125 281.191406 203.097656 C 280.886719 203.292969 280.757812 203.46875 280.933594 203.46875 C 281.472656 203.46875 282.640625 202.058594 282.816406 201.210938 C 283.007812 200.085938 282.597656 198.847656 281.796875 198.175781 C 280.78125 197.332031 280.671875 197.503906 281.625 198.460938 Z M 281.625 198.460938 " fill-opacity="1" fill-rule="nonzero"/><path fill="#000000" d="M 310.390625 200.539062 L 310.390625 203.46875 L 312.988281 203.46875 L 312.988281 197.613281 L 310.390625 197.613281 Z M 310.390625 200.539062 " fill-opacity="1" fill-rule="nonzero"/><path fill="#000000" d="M 326.859375 198.460938 C 327.617188 199.21875 327.703125 199.414062 327.703125 200.433594 C 327.703125 201.6875 327.292969 202.578125 326.425781 203.097656 C 326.125 203.292969 325.996094 203.46875 326.167969 203.46875 C 326.707031 203.46875 327.878906 202.058594 328.050781 201.210938 C 328.246094 200.085938 327.835938 198.847656 327.035156 198.175781 C 326.015625 197.332031 325.90625 197.503906 326.859375 198.460938 Z M 326.859375 198.460938 " fill-opacity="1" fill-rule="nonzero"/><path fill="#000000" d="M 188.316406 201.582031 C 187.539062 201.972656 187.472656 202.902344 188.207031 203.378906 C 188.683594 203.707031 188.945312 203.726562 189.636719 203.53125 C 190.089844 203.402344 190.480469 203.378906 190.480469 203.488281 C 190.480469 203.792969 189.550781 204.335938 189.03125 204.335938 C 188.75 204.335938 188.53125 204.421875 188.53125 204.550781 C 188.53125 204.660156 188.726562 204.765625 188.964844 204.765625 C 190.632812 204.765625 191.585938 202.707031 190.351562 201.753906 C 189.703125 201.234375 189.097656 201.191406 188.316406 201.582031 Z M 188.316406 201.582031 " fill-opacity="1" fill-rule="nonzero"/><path fill="#000000" d="M 181.175781 202.167969 C 181.175781 202.273438 180.804688 202.621094 180.375 202.925781 C 179.875 203.25 179.703125 203.46875 179.917969 203.46875 C 180.113281 203.46875 180.566406 203.207031 180.9375 202.902344 C 181.605469 202.339844 181.800781 201.949219 181.390625 201.949219 C 181.28125 201.949219 181.175781 202.035156 181.175781 202.167969 Z M 181.175781 202.167969 " fill-opacity="1" fill-rule="nonzero"/><path fill="#000000" d="M 209.960938 202.167969 C 209.960938 202.273438 209.59375 202.621094 209.160156 202.925781 C 208.664062 203.25 208.488281 203.46875 208.707031 203.46875 C 208.898438 203.46875 209.355469 203.207031 209.722656 202.902344 C 210.394531 202.339844 210.589844 201.949219 210.175781 201.949219 C 210.070312 201.949219 209.960938 202.035156 209.960938 202.167969 Z M 209.960938 202.167969 " fill-opacity="1" fill-rule="nonzero"/><path fill="#000000" d="M 223.078125 202.707031 C 222.601562 203.121094 222.296875 203.46875 222.40625 203.46875 C 222.773438 203.46875 224.03125 202.535156 224.03125 202.253906 C 224.03125 201.863281 224.050781 201.839844 223.078125 202.707031 Z M 223.078125 202.707031 " fill-opacity="1" fill-rule="nonzero"/><path fill="#000000" d="M 241.128906 202.167969 C 241.128906 202.273438 240.761719 202.621094 240.328125 202.925781 C 239.828125 203.25 239.65625 203.46875 239.871094 203.46875 C 240.066406 203.46875 240.523438 203.207031 240.890625 202.902344 C 241.5625 202.339844 241.757812 201.949219 241.34375 201.949219 C 241.238281 201.949219 241.128906 202.035156 241.128906 202.167969 Z M 241.128906 202.167969 " fill-opacity="1" fill-rule="nonzero"/><path fill="#000000" d="M 275.457031 202.707031 C 274.980469 203.121094 274.675781 203.46875 274.785156 203.46875 C 275.152344 203.46875 276.40625 202.535156 276.40625 202.253906 C 276.40625 201.863281 276.429688 201.839844 275.457031 202.707031 Z M 275.457031 202.707031 " fill-opacity="1" fill-rule="nonzero"/><path fill="#000000" d="M 293.941406 202.167969 C 293.941406 202.273438 293.570312 202.621094 293.140625 202.925781 C 292.640625 203.25 292.46875 203.46875 292.683594 203.46875 C 292.878906 203.46875 293.332031 203.207031 293.703125 202.902344 C 294.371094 202.339844 294.566406 201.949219 294.15625 201.949219 C 294.046875 201.949219 293.941406 202.035156 293.941406 202.167969 Z M 293.941406 202.167969 " fill-opacity="1" fill-rule="nonzero"/></svg>