<svg xmlns="http://www.w3.org/2000/svg" xmlns:xlink="http://www.w3.org/1999/xlink" width="128" zoomAndPan="magnify" viewBox="0 0 96 95.999999" height="128" preserveAspectRatio="xMidYMid meet" version="1.0"><path fill="#000000" d="M 49.445312 1.738281 C 47.957031 1.738281 46.46875 1.8125 44.984375 1.957031 C 43.5 2.101562 42.027344 2.320312 40.566406 2.609375 C 39.105469 2.898438 37.660156 3.257812 36.230469 3.691406 C 34.804688 4.121094 33.402344 4.621094 32.027344 5.1875 C 30.648438 5.757812 29.300781 6.390625 27.988281 7.089844 C 26.671875 7.789062 25.394531 8.554688 24.15625 9.378906 C 22.914062 10.203125 21.71875 11.085938 20.566406 12.03125 C 19.414062 12.972656 18.308594 13.96875 17.253906 15.019531 C 16.199219 16.070312 15.199219 17.167969 14.253906 18.316406 C 13.308594 19.464844 12.421875 20.65625 11.59375 21.890625 C 10.761719 23.125 9.996094 24.398438 9.292969 25.707031 C 8.589844 27.019531 7.953125 28.359375 7.382812 29.730469 C 6.8125 31.105469 6.3125 32.5 5.878906 33.921875 C 5.445312 35.34375 5.082031 36.785156 4.792969 38.242188 C 4.5 39.699219 4.28125 41.164062 4.136719 42.644531 C 3.988281 44.121094 3.914062 45.605469 3.914062 47.089844 C 3.914062 48.574219 3.988281 50.058594 4.132812 51.535156 C 4.28125 53.015625 4.5 54.484375 4.789062 55.941406 C 5.078125 57.398438 5.441406 58.835938 5.875 60.257812 C 6.304688 61.679688 6.808594 63.078125 7.378906 64.449219 C 7.949219 65.820312 8.585938 67.164062 9.289062 68.472656 C 9.992188 69.785156 10.753906 71.058594 11.585938 72.292969 C 12.414062 73.527344 13.300781 74.71875 14.246094 75.867188 C 15.191406 77.015625 16.191406 78.117188 17.246094 79.167969 C 18.296875 80.21875 19.402344 81.214844 20.554688 82.15625 C 21.707031 83.097656 22.902344 83.984375 24.140625 84.808594 C 25.382812 85.632812 26.660156 86.398438 27.972656 87.097656 C 29.289062 87.796875 30.632812 88.433594 32.011719 89 C 33.390625 89.570312 34.792969 90.070312 36.21875 90.5 C 37.644531 90.933594 39.089844 91.292969 40.550781 91.582031 C 42.015625 91.875 43.488281 92.089844 44.96875 92.238281 C 46.453125 92.382812 47.941406 92.457031 49.433594 92.457031 C 50.921875 92.457031 52.410156 92.382812 53.894531 92.238281 C 55.378906 92.09375 56.851562 91.875 58.3125 91.585938 C 59.777344 91.296875 61.21875 90.933594 62.648438 90.503906 C 64.074219 90.074219 65.476562 89.574219 66.855469 89.003906 C 68.230469 88.4375 69.578125 87.800781 70.890625 87.101562 C 72.207031 86.402344 73.484375 85.636719 74.722656 84.8125 C 75.964844 83.988281 77.160156 83.105469 78.3125 82.160156 C 79.464844 81.21875 80.570312 80.222656 81.621094 79.171875 C 82.675781 78.121094 83.675781 77.023438 84.621094 75.875 C 85.570312 74.726562 86.457031 73.535156 87.285156 72.296875 C 88.113281 71.0625 88.878906 69.789062 89.582031 68.480469 C 90.285156 67.171875 90.921875 65.828125 91.492188 64.457031 C 92.0625 63.082031 92.5625 61.6875 92.996094 60.265625 C 93.429688 58.84375 93.792969 57.402344 94.082031 55.945312 C 94.371094 54.488281 94.589844 53.023438 94.738281 51.542969 C 94.882812 50.066406 94.957031 48.582031 94.957031 47.097656 C 94.957031 45.613281 94.882812 44.132812 94.734375 42.652344 C 94.585938 41.175781 94.367188 39.710938 94.074219 38.253906 C 93.785156 36.796875 93.421875 35.359375 92.988281 33.9375 C 92.554688 32.515625 92.050781 31.121094 91.480469 29.75 C 90.910156 28.378906 90.273438 27.035156 89.570312 25.726562 C 88.867188 24.417969 88.101562 23.144531 87.273438 21.910156 C 86.445312 20.675781 85.558594 19.484375 84.613281 18.339844 C 83.667969 17.191406 82.667969 16.089844 81.613281 15.042969 C 80.5625 13.992188 79.457031 12.996094 78.308594 12.050781 C 77.15625 11.109375 75.960938 10.226562 74.722656 9.402344 C 73.484375 8.574219 72.207031 7.8125 70.890625 7.113281 C 69.578125 6.410156 68.234375 5.777344 66.855469 5.207031 C 65.480469 4.636719 64.078125 4.136719 62.652344 3.703125 C 61.226562 3.273438 59.785156 2.910156 58.324219 2.621094 C 56.863281 2.328125 55.390625 2.109375 53.90625 1.960938 C 52.425781 1.816406 50.9375 1.742188 49.445312 1.738281 Z M 49.445312 90.714844 C 48.011719 90.714844 46.582031 90.648438 45.15625 90.507812 C 43.726562 90.367188 42.3125 90.160156 40.902344 89.878906 C 39.496094 89.601562 38.109375 89.253906 36.734375 88.839844 C 35.363281 88.425781 34.015625 87.945312 32.6875 87.398438 C 31.363281 86.851562 30.070312 86.242188 28.804688 85.570312 C 27.539062 84.894531 26.308594 84.160156 25.117188 83.367188 C 23.925781 82.574219 22.773438 81.722656 21.664062 80.816406 C 20.554688 79.910156 19.496094 78.953125 18.480469 77.941406 C 17.464844 76.933594 16.503906 75.875 15.59375 74.769531 C 14.683594 73.664062 13.832031 72.519531 13.035156 71.332031 C 12.238281 70.144531 11.5 68.917969 10.824219 67.660156 C 10.148438 66.398438 9.535156 65.109375 8.984375 63.789062 C 8.4375 62.46875 7.953125 61.125 7.539062 59.757812 C 7.121094 58.390625 6.773438 57.003906 6.492188 55.601562 C 6.210938 54.203125 6.003906 52.789062 5.863281 51.367188 C 5.722656 49.945312 5.652344 48.519531 5.652344 47.089844 C 5.652344 45.660156 5.71875 44.234375 5.859375 42.8125 C 6 41.390625 6.210938 39.980469 6.492188 38.578125 C 6.769531 37.175781 7.117188 35.792969 7.535156 34.425781 C 7.953125 33.054688 8.433594 31.710938 8.984375 30.390625 C 9.53125 29.070312 10.144531 27.78125 10.820312 26.519531 C 11.496094 25.261719 12.234375 24.035156 13.027344 22.847656 C 13.824219 21.660156 14.679688 20.511719 15.589844 19.410156 C 16.5 18.304688 17.460938 17.246094 18.476562 16.234375 C 19.488281 15.226562 20.550781 14.265625 21.660156 13.359375 C 22.769531 12.453125 23.917969 11.605469 25.109375 10.808594 C 26.304688 10.015625 27.53125 9.28125 28.796875 8.609375 C 30.0625 7.933594 31.355469 7.324219 32.683594 6.777344 C 34.007812 6.230469 35.355469 5.75 36.726562 5.335938 C 38.101562 4.921875 39.488281 4.574219 40.898438 4.296875 C 42.304688 4.015625 43.71875 3.808594 45.148438 3.667969 C 46.574219 3.527344 48.003906 3.457031 49.441406 3.457031 C 50.875 3.457031 52.304688 3.527344 53.730469 3.667969 C 55.160156 3.808594 56.578125 4.015625 57.984375 4.296875 C 59.390625 4.574219 60.777344 4.921875 62.152344 5.335938 C 63.523438 5.753906 64.871094 6.234375 66.199219 6.78125 C 67.523438 7.328125 68.816406 7.9375 70.082031 8.613281 C 71.347656 9.285156 72.574219 10.019531 73.765625 10.8125 C 74.960938 11.609375 76.109375 12.457031 77.21875 13.363281 C 78.328125 14.273438 79.386719 15.230469 80.402344 16.242188 C 81.417969 17.25 82.378906 18.308594 83.289062 19.414062 C 84.199219 20.519531 85.050781 21.664062 85.847656 22.855469 C 86.644531 24.042969 87.378906 25.265625 88.054688 26.527344 C 88.730469 27.789062 89.34375 29.078125 89.890625 30.398438 C 90.441406 31.71875 90.921875 33.0625 91.339844 34.429688 C 91.753906 35.796875 92.101562 37.183594 92.382812 38.585938 C 92.660156 39.988281 92.871094 41.398438 93.011719 42.820312 C 93.152344 44.242188 93.222656 45.667969 93.222656 47.097656 C 93.21875 48.527344 93.148438 49.949219 93.007812 51.371094 C 92.863281 52.792969 92.652344 54.203125 92.371094 55.601562 C 92.089844 57.003906 91.742188 58.386719 91.324219 59.753906 C 90.90625 61.121094 90.425781 62.460938 89.875 63.78125 C 89.324219 65.101562 88.714844 66.390625 88.035156 67.648438 C 87.359375 68.90625 86.625 70.128906 85.828125 71.316406 C 85.03125 72.503906 84.179688 73.652344 83.269531 74.753906 C 82.359375 75.859375 81.398438 76.914062 80.382812 77.925781 C 79.371094 78.933594 78.3125 79.890625 77.203125 80.796875 C 76.09375 81.703125 74.945312 82.554688 73.753906 83.347656 C 72.5625 84.140625 71.335938 84.875 70.070312 85.550781 C 68.808594 86.222656 67.515625 86.835938 66.191406 87.382812 C 64.867188 87.929688 63.519531 88.410156 62.148438 88.824219 C 60.777344 89.242188 59.390625 89.589844 57.984375 89.867188 C 56.578125 90.148438 55.164062 90.359375 53.734375 90.5 C 52.308594 90.644531 50.878906 90.714844 49.445312 90.714844 Z M 49.445312 90.714844 " fill-opacity="1" fill-rule="nonzero"/><path fill="#000000" d="M 76.800781 37.617188 C 76.351562 36.101562 75.457031 34.917969 74.117188 34.074219 C 74.957031 32.984375 76.234375 30.8125 75.753906 28.898438 C 75.574219 28.265625 75.253906 27.71875 74.789062 27.253906 C 74.324219 26.792969 73.777344 26.46875 73.144531 26.289062 C 72.917969 26.203125 72.695312 26.210938 72.476562 26.3125 C 72.257812 26.414062 72.105469 26.574219 72.023438 26.800781 C 71.9375 27.023438 71.945312 27.246094 72.046875 27.464844 C 72.144531 27.683594 72.308594 27.835938 72.535156 27.917969 C 72.890625 28.007812 73.203125 28.175781 73.472656 28.421875 C 73.746094 28.671875 73.941406 28.964844 74.0625 29.3125 C 74.378906 30.5625 73.308594 32.269531 72.578125 33.226562 C 72.164062 33.011719 71.738281 32.839844 71.292969 32.703125 C 70.851562 32.566406 70.398438 32.46875 69.9375 32.414062 C 69.476562 32.359375 69.015625 32.34375 68.550781 32.371094 C 68.089844 32.394531 67.632812 32.460938 67.179688 32.570312 C 66.726562 32.675781 66.289062 32.824219 65.863281 33.007812 C 65.441406 33.195312 65.035156 33.414062 64.648438 33.671875 C 64.261719 33.929688 63.902344 34.21875 63.570312 34.539062 C 63.234375 34.859375 62.933594 35.210938 62.660156 35.585938 C 59.898438 35.886719 55.480469 37.464844 52.839844 44.074219 C 46.054688 61.316406 28.769531 69.949219 28.597656 70.039062 C 28.417969 70.121094 28.285156 70.253906 28.195312 70.429688 C 28.109375 70.605469 28.085938 70.789062 28.128906 70.984375 C 28.164062 71.179688 28.257812 71.339844 28.410156 71.472656 C 28.558594 71.601562 28.734375 71.671875 28.933594 71.679688 C 29.394531 71.679688 29.863281 71.679688 30.34375 71.679688 C 44.527344 71.679688 66.644531 61.894531 74.355469 51.859375 C 74.792969 51.316406 75.15625 50.726562 75.449219 50.089844 C 75.738281 49.457031 75.945312 48.796875 76.074219 48.109375 C 76.199219 47.425781 76.242188 46.734375 76.195312 46.039062 C 76.152344 45.34375 76.023438 44.664062 75.808594 44 C 76.355469 43.03125 76.710938 41.996094 76.882812 40.898438 C 77.054688 39.800781 77.027344 38.707031 76.800781 37.617188 Z M 72.980469 50.835938 C 66.011719 59.839844 45.933594 69.039062 32.351562 69.90625 C 37.804688 66.589844 49.097656 58.339844 54.488281 44.714844 C 56.300781 40.117188 59.453125 37.464844 63.359375 37.257812 L 63.871094 37.257812 C 64.867188 37.277344 65.84375 37.425781 66.800781 37.695312 C 67.757812 37.96875 68.664062 38.359375 69.519531 38.867188 C 70.375 39.375 71.148438 39.984375 71.847656 40.695312 C 72.542969 41.402344 73.136719 42.191406 73.625 43.054688 C 73.972656 43.65625 74.226562 44.300781 74.378906 44.980469 C 74.53125 45.664062 74.578125 46.351562 74.519531 47.046875 C 74.460938 47.742188 74.300781 48.410156 74.039062 49.058594 C 73.777344 49.703125 73.425781 50.296875 72.980469 50.835938 Z M 74.847656 41.8125 C 74.320312 40.957031 73.703125 40.171875 72.992188 39.453125 C 72.285156 38.734375 71.507812 38.105469 70.65625 37.566406 C 69.808594 37.023438 68.90625 36.585938 67.957031 36.246094 C 67.007812 35.910156 66.03125 35.679688 65.027344 35.5625 C 66.328125 34.410156 68.78125 33.160156 72.4375 35.0625 C 73.078125 35.347656 73.636719 35.753906 74.105469 36.28125 C 74.570312 36.804688 74.910156 37.402344 75.121094 38.074219 C 75.414062 39.347656 75.320312 40.59375 74.847656 41.8125 Z M 74.847656 41.8125 " fill-opacity="1" fill-rule="nonzero"/><path fill="#000000" d="M 69.273438 41.964844 C 69.0625 42.078125 68.917969 42.246094 68.84375 42.472656 C 68.769531 42.695312 68.785156 42.914062 68.890625 43.128906 C 68.988281 43.324219 71.257812 48.066406 64.808594 52.914062 C 64.617188 53.0625 64.507812 53.257812 64.480469 53.5 C 64.449219 53.742188 64.511719 53.957031 64.660156 54.148438 C 64.8125 54.339844 65.007812 54.449219 65.25 54.476562 C 65.492188 54.507812 65.710938 54.445312 65.902344 54.292969 C 73.539062 48.523438 70.515625 42.335938 70.484375 42.335938 C 70.429688 42.230469 70.359375 42.136719 70.265625 42.058594 C 70.175781 41.984375 70.070312 41.925781 69.957031 41.890625 C 69.84375 41.855469 69.726562 41.84375 69.605469 41.859375 C 69.488281 41.871094 69.375 41.90625 69.273438 41.964844 Z M 69.273438 41.964844 " fill-opacity="1" fill-rule="nonzero"/><path fill="#000000" d="M 31.5625 60.558594 C 31.699219 60.640625 31.84375 60.679688 32 60.675781 C 32.332031 60.679688 32.585938 60.539062 32.753906 60.253906 C 32.875 60.046875 32.90625 59.828125 32.84375 59.597656 C 32.785156 59.367188 32.652344 59.191406 32.449219 59.066406 C 31.203125 58.273438 29.023438 55.589844 28.300781 51.925781 C 27.746094 49.066406 27.855469 44.617188 31.574219 39.660156 C 35.710938 34.226562 34.390625 27.703125 33.40625 24.625 C 35.679688 25.417969 37.550781 26.765625 39.015625 28.667969 C 39.082031 28.769531 39.164062 28.851562 39.261719 28.917969 C 39.359375 28.984375 39.46875 29.027344 39.585938 29.050781 C 39.703125 29.070312 39.820312 29.070312 39.9375 29.042969 C 40.050781 29.019531 40.160156 28.972656 40.257812 28.902344 C 40.351562 28.832031 40.433594 28.75 40.492188 28.648438 C 40.554688 28.546875 40.59375 28.4375 40.613281 28.320312 C 40.628906 28.203125 40.621094 28.085938 40.589844 27.96875 C 40.558594 27.855469 40.507812 27.75 40.433594 27.660156 C 39.402344 26.335938 38.175781 25.222656 36.761719 24.316406 C 35.34375 23.414062 33.8125 22.773438 32.175781 22.394531 C 31.824219 22.328125 31.542969 22.429688 31.324219 22.710938 C 31.097656 22.988281 31.0625 23.289062 31.214844 23.613281 C 31.214844 23.699219 35.089844 32.136719 30.210938 38.585938 C 26.074219 44.019531 25.964844 49.023438 26.597656 52.21875 C 27.472656 56.707031 30.046875 59.664062 31.5625 60.558594 Z M 31.5625 60.558594 " fill-opacity="1" fill-rule="nonzero"/><path fill="#000000" d="M 44.953125 48.707031 C 45.085938 48.789062 45.230469 48.832031 45.386719 48.828125 C 45.71875 48.832031 45.96875 48.695312 46.140625 48.414062 C 46.265625 48.207031 46.296875 47.984375 46.238281 47.75 C 46.179688 47.519531 46.042969 47.339844 45.835938 47.21875 C 44.980469 46.230469 44.46875 45.09375 44.296875 43.804688 C 44.011719 42.53125 43.207031 38.160156 45.386719 34.910156 C 46.261719 33.5 46.816406 31.976562 47.050781 30.339844 C 47.289062 28.699219 47.1875 27.082031 46.753906 25.484375 C 48.738281 26.398438 51.890625 28.464844 51.96875 32.398438 C 51.972656 32.632812 52.0625 32.835938 52.230469 33 C 52.398438 33.164062 52.605469 33.246094 52.839844 33.246094 C 53.078125 33.238281 53.28125 33.148438 53.445312 32.976562 C 53.609375 32.808594 53.691406 32.601562 53.691406 32.367188 C 53.539062 25.40625 45.660156 23.234375 45.585938 23.210938 C 45.234375 23.125 44.941406 23.214844 44.699219 23.484375 C 44.460938 23.757812 44.414062 24.0625 44.558594 24.398438 C 44.558594 24.453125 46.742188 29.679688 43.914062 33.953125 C 41.363281 37.769531 42.222656 42.75 42.550781 44.183594 C 42.78125 45.03125 43.523438 47.859375 44.953125 48.707031 Z M 44.953125 48.707031 " fill-opacity="1" fill-rule="nonzero"/></svg>