<svg xmlns="http://www.w3.org/2000/svg" xmlns:xlink="http://www.w3.org/1999/xlink" width="500" zoomAndPan="magnify" viewBox="0 0 375 374.999991" height="500" preserveAspectRatio="xMidYMid meet" version="1.0"><defs><clipPath id="f628e4e58d"><path d="M 0 273 L 358 273 L 358 354.613281 L 0 354.613281 Z M 0 273 " clip-rule="nonzero"/></clipPath></defs><g clip-path="url(#f628e4e58d)"><path fill="#ff66c4" d="M 357.28125 314.140625 C 357.28125 314.804688 357.207031 315.472656 357.0625 316.136719 C 356.917969 316.800781 356.707031 317.46875 356.417969 318.128906 C 356.132812 318.792969 355.777344 319.453125 355.351562 320.113281 C 354.921875 320.769531 354.421875 321.425781 353.851562 322.082031 C 353.28125 322.734375 352.644531 323.382812 351.933594 324.03125 C 351.222656 324.675781 350.445312 325.316406 349.597656 325.957031 C 348.746094 326.59375 347.832031 327.226562 346.847656 327.851562 C 345.863281 328.480469 344.8125 329.101562 343.695312 329.714844 C 342.578125 330.332031 341.394531 330.941406 340.140625 331.542969 C 338.890625 332.144531 337.578125 332.738281 336.199219 333.328125 C 334.824219 333.914062 333.382812 334.492188 331.882812 335.066406 C 330.378906 335.636719 328.816406 336.199219 327.191406 336.75 C 325.570312 337.304688 323.890625 337.851562 322.148438 338.386719 C 320.410156 338.921875 318.613281 339.445312 316.757812 339.960938 C 314.902344 340.476562 312.996094 340.980469 311.035156 341.472656 C 309.074219 341.964844 307.0625 342.449219 304.992188 342.917969 C 302.929688 343.390625 300.8125 343.851562 298.648438 344.296875 C 296.484375 344.746094 294.269531 345.179688 292.011719 345.601562 C 289.753906 346.023438 287.453125 346.433594 285.105469 346.832031 C 282.761719 347.226562 280.371094 347.609375 277.941406 347.980469 C 275.515625 348.351562 273.046875 348.707031 270.539062 349.050781 C 268.03125 349.390625 265.492188 349.722656 262.914062 350.035156 C 260.335938 350.347656 257.726562 350.648438 255.085938 350.933594 C 252.445312 351.21875 249.777344 351.488281 247.078125 351.742188 C 244.378906 351.996094 241.652344 352.238281 238.902344 352.460938 C 236.152344 352.683594 233.378906 352.894531 230.582031 353.089844 C 227.785156 353.28125 224.96875 353.460938 222.132812 353.621094 C 219.300781 353.78125 216.449219 353.929688 213.585938 354.058594 C 210.722656 354.1875 207.84375 354.304688 204.953125 354.402344 C 202.0625 354.5 199.164062 354.578125 196.253906 354.644531 C 193.347656 354.710938 190.433594 354.761719 187.515625 354.792969 C 184.597656 354.824219 181.679688 354.839844 178.757812 354.839844 C 175.835938 354.839844 172.914062 354.824219 170 354.792969 C 167.078125 354.761719 164.164062 354.710938 161.257812 354.644531 C 158.351562 354.578125 155.453125 354.5 152.5625 354.402344 C 149.671875 354.304688 146.792969 354.1875 143.925781 354.058594 C 141.0625 353.929688 138.214844 353.78125 135.378906 353.621094 C 132.542969 353.460938 129.730469 353.28125 126.933594 353.089844 C 124.140625 352.894531 121.367188 352.683594 118.613281 352.460938 C 115.863281 352.238281 113.140625 351.996094 110.441406 351.742188 C 107.742188 351.488281 105.070312 351.21875 102.429688 350.933594 C 99.789062 350.648438 97.175781 350.347656 94.601562 350.035156 C 92.027344 349.722656 89.488281 349.390625 86.980469 349.050781 C 84.476562 348.707031 82.007812 348.351562 79.578125 347.980469 C 77.148438 347.609375 74.761719 347.226562 72.414062 346.832031 C 70.066406 346.433594 67.761719 346.023438 65.503906 345.601562 C 63.242188 345.179688 61.035156 344.746094 58.867188 344.296875 C 56.703125 343.851562 54.589844 343.390625 52.523438 342.921875 C 50.457031 342.449219 48.445312 341.96875 46.480469 341.472656 C 44.519531 340.980469 42.613281 340.476562 40.757812 339.960938 C 38.90625 339.445312 37.105469 338.921875 35.367188 338.386719 C 33.625 337.851562 31.941406 337.304688 30.320312 336.753906 C 28.699219 336.199219 27.136719 335.636719 25.636719 335.066406 C 24.132812 334.492188 22.691406 333.914062 21.316406 333.328125 C 19.9375 332.738281 18.628906 332.144531 17.375 331.542969 C 16.128906 330.941406 14.945312 330.332031 13.828125 329.714844 C 12.707031 329.101562 11.65625 328.480469 10.671875 327.851562 C 9.6875 327.226562 8.769531 326.59375 7.921875 325.957031 C 7.074219 325.316406 6.296875 324.675781 5.585938 324.03125 C 4.878906 323.382812 4.234375 322.734375 3.664062 322.082031 C 3.09375 321.425781 2.597656 320.769531 2.167969 320.113281 C 1.738281 319.453125 1.378906 318.792969 1.09375 318.128906 C 0.808594 317.464844 0.59375 316.800781 0.449219 316.136719 C 0.304688 315.472656 0.234375 314.804688 0.234375 314.140625 C 0.234375 313.472656 0.304688 312.808594 0.449219 312.144531 C 0.59375 311.476562 0.808594 310.8125 1.09375 310.152344 C 1.378906 309.488281 1.738281 308.828125 2.167969 308.167969 C 2.597656 307.507812 3.09375 306.851562 3.664062 306.199219 C 4.234375 305.546875 4.875 304.894531 5.585938 304.25 C 6.292969 303.605469 7.074219 302.960938 7.921875 302.324219 C 8.769531 301.6875 9.6875 301.054688 10.667969 300.429688 C 11.65625 299.800781 12.707031 299.179688 13.824219 298.5625 C 14.945312 297.949219 16.128906 297.339844 17.375 296.738281 C 18.625 296.136719 19.9375 295.539062 21.316406 294.953125 C 22.691406 294.367188 24.132812 293.785156 25.636719 293.214844 C 27.136719 292.644531 28.699219 292.082031 30.320312 291.527344 C 31.941406 290.972656 33.625 290.429688 35.367188 289.894531 C 37.105469 289.359375 38.90625 288.832031 40.757812 288.320312 C 42.613281 287.804688 44.519531 287.300781 46.480469 286.804688 C 48.445312 286.3125 50.457031 285.832031 52.523438 285.359375 C 54.589844 284.886719 56.707031 284.429688 58.871094 283.980469 C 61.035156 283.535156 63.246094 283.101562 65.503906 282.679688 C 67.761719 282.253906 70.066406 281.847656 72.414062 281.449219 C 74.761719 281.050781 77.148438 280.667969 79.578125 280.296875 C 82.007812 279.929688 84.476562 279.570312 86.980469 279.230469 C 89.488281 278.886719 92.027344 278.558594 94.601562 278.246094 C 97.175781 277.929688 99.789062 277.632812 102.429688 277.347656 C 105.070312 277.0625 107.742188 276.792969 110.441406 276.539062 C 113.140625 276.28125 115.863281 276.042969 118.613281 275.816406 C 121.367188 275.59375 124.140625 275.386719 126.933594 275.191406 C 129.730469 275 132.546875 274.820312 135.378906 274.660156 C 138.214844 274.496094 141.066406 274.351562 143.929688 274.222656 C 146.792969 274.089844 149.671875 273.976562 152.5625 273.878906 C 155.453125 273.78125 158.351562 273.699219 161.257812 273.636719 C 164.167969 273.570312 167.082031 273.523438 170 273.488281 C 172.914062 273.457031 175.835938 273.441406 178.757812 273.4375 C 181.679688 273.441406 184.597656 273.457031 187.515625 273.488281 C 190.433594 273.523438 193.34375 273.570312 196.253906 273.636719 C 199.164062 273.699219 202.0625 273.78125 204.953125 273.878906 C 207.84375 273.976562 210.722656 274.089844 213.585938 274.222656 C 216.449219 274.351562 219.300781 274.496094 222.132812 274.660156 C 224.96875 274.820312 227.785156 275 230.582031 275.191406 C 233.378906 275.386719 236.152344 275.59375 238.902344 275.816406 C 241.652344 276.042969 244.378906 276.28125 247.078125 276.539062 C 249.777344 276.792969 252.445312 277.0625 255.085938 277.347656 C 257.726562 277.632812 260.335938 277.929688 262.914062 278.246094 C 265.492188 278.558594 268.03125 278.886719 270.539062 279.230469 C 273.046875 279.570312 275.515625 279.929688 277.941406 280.296875 C 280.371094 280.667969 282.761719 281.050781 285.105469 281.449219 C 287.453125 281.84375 289.753906 282.253906 292.011719 282.679688 C 294.269531 283.101562 296.484375 283.535156 298.648438 283.980469 C 300.8125 284.429688 302.929688 284.886719 304.992188 285.359375 C 307.0625 285.832031 309.074219 286.3125 311.035156 286.808594 C 312.996094 287.300781 314.902344 287.804688 316.757812 288.320312 C 318.613281 288.835938 320.410156 289.359375 322.148438 289.894531 C 323.890625 290.429688 325.570312 290.972656 327.195312 291.527344 C 328.816406 292.082031 330.382812 292.644531 331.882812 293.214844 C 333.386719 293.785156 334.824219 294.367188 336.203125 294.953125 C 337.582031 295.539062 338.894531 296.136719 340.140625 296.738281 C 341.394531 297.339844 342.578125 297.949219 343.695312 298.5625 C 344.8125 299.179688 345.863281 299.800781 346.847656 300.429688 C 347.832031 301.054688 348.746094 301.6875 349.597656 302.324219 C 350.445312 302.960938 351.222656 303.605469 351.933594 304.25 C 352.644531 304.894531 353.28125 305.546875 353.851562 306.199219 C 354.421875 306.851562 354.921875 307.507812 355.351562 308.167969 C 355.777344 308.828125 356.132812 309.488281 356.417969 310.152344 C 356.707031 310.8125 356.917969 311.476562 357.0625 312.144531 C 357.207031 312.808594 357.28125 313.472656 357.28125 314.140625 Z M 357.28125 314.140625 " fill-opacity="1" fill-rule="nonzero"/></g><path fill="#3c0307" d="M 177.089844 292.175781 C 144.40625 292.070312 114.949219 294.257812 94.023438 297.796875 C 81.113281 299.984375 71.539062 302.792969 66.230469 305.8125 C 62.691406 307.894531 61.128906 310.183594 61.128906 312.371094 C 61.128906 314.660156 62.792969 316.949219 66.230469 319.03125 C 71.433594 322.15625 81.117188 324.964844 94.023438 327.257812 C 114.945312 331.003906 144.40625 333.292969 177.089844 333.292969 C 209.777344 333.292969 239.234375 330.898438 260.160156 327.152344 C 272.964844 324.863281 282.644531 322.050781 287.847656 318.929688 C 291.285156 316.847656 292.949219 314.554688 292.949219 312.371094 C 292.949219 310.183594 291.285156 307.789062 287.847656 305.8125 C 282.644531 302.691406 272.960938 299.984375 260.054688 297.695312 C 239.234375 294.257812 209.777344 292.070312 177.089844 292.175781 Z M 177.089844 294.464844 C 209.566406 294.570312 238.820312 296.964844 259.640625 300.710938 C 272.027344 302.898438 281.292969 305.605469 286.390625 308.625 C 287.640625 309.351562 288.679688 310.183594 289.304688 310.914062 C 289.722656 311.433594 290.035156 311.953125 290.035156 312.578125 C 290.035156 313.101562 289.722656 313.621094 289.304688 314.246094 C 288.683594 315.078125 287.640625 315.804688 286.390625 316.535156 C 281.394531 319.554688 272.023438 322.050781 259.640625 324.238281 C 238.921875 327.882812 209.570312 330.066406 177.089844 330.066406 C 144.613281 330.066406 115.363281 327.882812 94.542969 324.238281 C 82.15625 322.050781 72.890625 319.449219 67.792969 316.535156 C 66.542969 315.804688 65.503906 315.078125 64.875 314.246094 C 64.460938 313.726562 64.148438 313.203125 64.148438 312.683594 C 64.148438 312.164062 64.355469 311.644531 64.773438 311.121094 C 65.394531 310.289062 66.4375 309.5625 67.6875 308.832031 C 72.683594 305.8125 82.054688 303.210938 94.335938 300.921875 C 115.363281 296.964844 144.613281 294.570312 177.089844 294.464844 Z M 177.089844 294.464844 " fill-opacity="1" fill-rule="evenodd"/><path fill="#c4581e" d="M 282.882812 244.910156 C 282.882812 244.910156 262.738281 289.683594 254.351562 308.441406 C 242.347656 335.246094 124.855469 328.542969 101.585938 308.441406 C 89.746094 298.195312 56.117188 235.6875 53.566406 166.554688 C 52.828125 146.375 83.988281 115.082031 74.945312 96.476562 C 73.628906 93.796875 61.871094 68.652344 61.871094 48 C 61.871094 20.882812 232.972656 20.09375 275.234375 33.179688 C 289.460938 37.59375 273.507812 69.441406 275.234375 83.628906 C 275.976562 89.460938 279.511719 94.507812 282.882812 99.472656 C 283.953125 98.449219 285.101562 97.421875 286.253906 96.476562 C 307.136719 78.425781 349.566406 60.769531 359.347656 99 C 363.625 115.710938 374.722656 139.125 367.980469 166.554688 C 359.679688 200.371094 320.375 248.378906 282.882812 244.910156 Z M 286.253906 213.21875 C 289.050781 212.039062 333.121094 222.050781 340.929688 156.464844 C 350.222656 78.109375 301.382812 106.488281 292.996094 124.066406 C 296.449219 135.261719 296.859375 189.574219 286.253906 213.21875 Z M 286.253906 213.21875 " fill-opacity="1" fill-rule="evenodd"/><path fill="#faf7de" d="M 92.785156 60.136719 C 91.714844 60.847656 97.308594 55.566406 98.128906 54.699219 C 100.023438 52.730469 102.40625 51.308594 104.789062 49.96875 C 112.273438 45.949219 120.988281 44.136719 129.539062 44.292969 C 139.074219 44.453125 147.710938 48.394531 157.164062 48.789062 C 176.898438 49.65625 196.628906 46.582031 216.613281 47.683594 C 220.3125 47.839844 241.6875 46.5 243.25 51.074219 C 246.375 60.691406 222.941406 64.394531 217.515625 65.027344 C 187.832031 68.574219 156.34375 69.992188 126.660156 66.367188 " fill-opacity="1" fill-rule="evenodd"/><path fill="#3c0307" d="M 67.214844 47.445312 C 67.296875 47.527344 67.378906 47.605469 67.460938 47.683594 C 69.929688 50.128906 78.234375 54.304688 80.949219 55.25 C 87.03125 57.535156 93.445312 59.191406 99.941406 60.53125 C 109.726562 62.503906 119.835938 63.683594 129.457031 64.789062 C 147.628906 66.917969 165.636719 67.546875 183.476562 66.996094 C 201.402344 66.367188 219.242188 64.550781 237.25 61.320312 C 244.570312 59.980469 253.449219 58.957031 261.257812 56.195312 C 266.4375 54.382812 271.207031 51.859375 274.578125 47.917969 C 274.988281 47.445312 275.730469 47.367188 276.140625 47.761719 C 276.632812 48.15625 276.714844 48.867188 276.304688 49.339844 C 272.6875 53.675781 267.671875 56.511719 262.078125 58.5625 C 254.1875 61.476562 245.222656 62.738281 237.742188 64.15625 C 219.570312 67.625 201.5625 69.832031 183.476562 70.464844 C 165.386719 71.09375 147.296875 70.226562 128.960938 67.941406 C 119.175781 66.679688 109.066406 65.417969 99.199219 63.289062 C 92.539062 61.871094 86.042969 60.058594 79.792969 57.617188 C 77.328125 56.667969 70.503906 53.121094 67.050781 50.519531 C 65.734375 49.574219 64.914062 48.628906 64.664062 48 C 64.335938 47.132812 64.582031 46.5 65.238281 45.949219 C 65.734375 45.554688 66.472656 45.710938 66.882812 46.183594 C 67.296875 46.660156 67.296875 47.054688 67.214844 47.445312 Z M 67.132812 47.367188 C 67.214844 47.210938 67.132812 47.132812 67.050781 47.132812 C 66.96875 47.210938 67.050781 47.289062 67.132812 47.367188 Z M 67.132812 47.367188 " fill-opacity="1" fill-rule="evenodd"/><path fill="#3c0307" d="M 84.316406 104.203125 C 85.882812 104.832031 89.414062 106.015625 89.992188 106.09375 C 92.296875 106.566406 94.515625 106.960938 96.816406 107.355469 C 99.121094 107.671875 101.421875 107.90625 103.722656 108.066406 C 109.5625 108.539062 115.480469 108.695312 121.320312 108.773438 C 130.199219 108.851562 139.160156 108.617188 147.960938 108.300781 C 160.953125 107.984375 174.023438 107.433594 187.097656 106.726562 C 200.089844 106.015625 212.996094 104.910156 225.742188 103.019531 C 242.679688 100.496094 259.371094 96.554688 275.402344 89.933594 C 277.210938 89.144531 279.265625 89.933594 280.089844 91.667969 C 280.910156 93.480469 280.089844 95.53125 278.28125 96.320312 C 262 104.203125 244.980469 109.5625 227.386719 112.953125 C 214.3125 115.476562 201.074219 116.972656 187.671875 117.839844 C 174.433594 118.628906 161.195312 118.628906 148.042969 118.628906 C 138.996094 118.546875 129.953125 118.46875 120.992188 117.996094 C 114.90625 117.683594 108.820312 117.207031 102.820312 116.5 C 100.351562 116.183594 97.886719 115.789062 95.417969 115.316406 C 92.953125 114.84375 90.566406 114.292969 88.101562 113.660156 C 87.441406 113.503906 82.59375 111.613281 80.949219 110.902344 C 75.933594 108.617188 80.703125 103.570312 81.851562 103.570312 C 82.015625 103.570312 82.429688 103.570312 83.085938 103.730469 C 83.660156 103.808594 83.988281 103.964844 84.316406 104.203125 Z M 84.070312 104.125 C 83.988281 104.042969 83.824219 103.886719 83.824219 104.042969 C 83.824219 104.125 83.90625 104.042969 83.988281 104.125 Z M 84.070312 104.125 " fill-opacity="1" fill-rule="evenodd"/><path fill="#3c0307" d="M 60.71875 173.726562 C 63.351562 175.304688 70.914062 175.933594 71.492188 176.09375 C 77.328125 177.75 83.332031 178.929688 89.414062 179.71875 C 98.625 180.902344 107.914062 181.296875 117.125 181.453125 C 138.171875 181.925781 158.726562 181.296875 179.199219 179.957031 C 187.421875 179.402344 195.644531 178.773438 203.949219 178.0625 C 216.199219 176.960938 228.535156 175.699219 240.949219 173.886719 C 250.566406 172.625 261.75 171.679688 272.273438 169.472656 C 279.179688 168.054688 285.757812 166.082031 291.347656 162.851562 C 292.992188 161.90625 295.050781 162.457031 296.035156 164.113281 C 297.023438 165.765625 296.445312 167.972656 294.800781 168.921875 C 288.71875 172.703125 281.566406 175.382812 274.082031 177.355469 C 263.476562 180.191406 252.128906 181.613281 242.347656 183.347656 C 229.765625 185.554688 217.351562 187.445312 204.933594 188.785156 C 196.546875 189.730469 188.160156 190.441406 179.777344 190.914062 C 158.972656 192.097656 138.171875 191.9375 116.792969 190.992188 C 107.257812 190.519531 97.636719 189.730469 88.179688 188.15625 C 81.765625 187.050781 75.4375 185.554688 69.269531 183.582031 C 68.367188 183.265625 59.074219 180.351562 56.03125 178.222656 C 53.566406 176.488281 53.316406 174.28125 53.730469 172.941406 C 54.304688 170.96875 56.277344 169.867188 58.167969 170.417969 C 58.992188 170.65625 59.648438 171.207031 60.144531 171.835938 C 60.226562 171.835938 60.308594 171.996094 60.308594 172.152344 C 60.554688 172.78125 60.636719 173.253906 60.71875 173.726562 Z M 60.144531 172.074219 C 60.144531 172.074219 60.0625 172.074219 60.0625 172.152344 C 59.734375 172.78125 60.0625 173.253906 60.804688 173.726562 C 60.804688 173.492188 60.722656 173.253906 60.554688 173.019531 C 60.472656 172.941406 60.472656 172.625 60.390625 172.386719 L 60.308594 172.230469 C 60.226562 172.152344 60.144531 172.152344 60.144531 172.074219 Z M 60.144531 172.074219 " fill-opacity="1" fill-rule="evenodd"/><path fill="#3c0307" d="M 64.09375 147.792969 C 66.148438 146.21875 68.203125 144.957031 70.421875 143.851562 C 72.640625 142.75 74.945312 141.882812 77.492188 141.171875 C 88.019531 138.019531 95.910156 138.492188 102.324219 141.171875 C 112.027344 145.113281 118.519531 153.628906 126.167969 160.957031 C 134.554688 169 144.09375 175.855469 158.234375 176.882812 C 169.828125 177.589844 179.777344 175.382812 188.902344 171.363281 C 199.429688 166.714844 208.71875 159.699219 218.257812 152.839844 C 226.890625 146.53125 235.6875 140.304688 245.964844 136.523438 C 250.238281 134.945312 254.269531 134.789062 258.214844 135.339844 C 269.480469 136.757812 280.332031 142.433594 292.914062 140.148438 C 294.804688 139.832031 296.117188 138.019531 295.871094 136.128906 C 295.542969 134.234375 293.734375 132.894531 291.84375 133.210938 C 286.335938 133.921875 281.316406 132.816406 276.46875 131.476562 C 270.792969 129.820312 265.285156 127.773438 259.53125 126.746094 C 254.1875 125.800781 248.679688 125.878906 242.839844 127.773438 C 231.492188 131.476562 221.625 137.78125 212.085938 144.324219 C 203.042969 150.550781 194.246094 156.9375 184.378906 161.273438 C 176.816406 164.585938 168.511719 166.710938 158.890625 166.160156 C 144.914062 165.53125 136.609375 157.175781 128.304688 149.292969 C 121.316406 142.671875 114.492188 136.207031 105.53125 132.894531 C 97.472656 129.902344 87.851562 129.269531 75.027344 133.683594 C 72.148438 134.707031 69.433594 135.8125 66.886719 137.152344 C 64.253906 138.570312 61.789062 140.148438 59.484375 142.117188 C 57.925781 143.378906 57.59375 145.664062 58.910156 147.242188 C 60.144531 148.820312 62.527344 149.054688 64.09375 147.792969 Z M 64.09375 147.792969 " fill-opacity="1" fill-rule="evenodd"/><path fill="#3c0307" d="M 147.136719 138.335938 C 146.476562 137.625 154.042969 137.074219 154.863281 136.996094 C 160.128906 136.523438 165.390625 136.128906 170.652344 135.8125 C 178.792969 135.261719 186.929688 134.867188 194.988281 133.839844 C 198.523438 133.367188 201.976562 132.738281 205.429688 131.949219 C 205.757812 131.871094 206.414062 131.398438 206.414062 131.714844 C 206.828125 133.289062 194.082031 140.382812 192.601562 141.332031 C 177.800781 150.238281 157.820312 150.710938 145.324219 138.175781 " fill-opacity="1" fill-rule="evenodd"/><path fill="#3c0307" d="M 225.246094 164.742188 C 231.824219 158.828125 236.425781 152.367188 246.292969 150.472656 C 252.953125 149.210938 260.4375 150 267.097656 150.867188 C 269.644531 151.261719 272.277344 151.65625 274.746094 152.207031 C 275.402344 152.367188 277.128906 152.128906 276.800781 152.679688 C 272.277344 159.460938 254.105469 161.511719 246.871094 162.457031 C 239.636719 163.324219 232.484375 164.269531 225.246094 164.503906 " fill-opacity="1" fill-rule="evenodd"/><path fill="#3c0307" d="M 62.773438 161.351562 C 69.683594 158.042969 70.585938 151.261719 81.027344 151.972656 C 89.90625 152.601562 95.746094 158.121094 101.582031 163.953125 C 103.144531 165.53125 107.832031 166.632812 106.597656 168.527344 C 105.941406 169.550781 94.265625 168.132812 78.890625 165.609375 C 72.066406 164.503906 65.160156 163.480469 58.335938 162.457031 " fill-opacity="1" fill-rule="evenodd"/><path fill="#faf7de" d="M 337.3125 87.648438 C 338.957031 90.011719 341.671875 91.828125 343.808594 94.113281 C 344.300781 94.585938 344.714844 95.136719 345.125 95.6875 C 346.851562 98.054688 348.25 100.65625 349.566406 103.257812 C 350.386719 104.992188 351.207031 106.804688 351.949219 108.617188 C 352.851562 110.902344 353.675781 113.269531 354.335938 115.632812 C 355.074219 118.074219 355.648438 120.441406 356.058594 122.882812 C 356.140625 123.515625 356.71875 123.910156 357.292969 123.832031 C 357.867188 123.75 358.363281 123.199219 358.28125 122.570312 C 358.03125 119.574219 357.539062 116.5 356.800781 113.425781 C 356.304688 111.375 355.8125 109.40625 355.074219 107.433594 C 354.414062 105.464844 353.589844 103.570312 352.605469 101.679688 C 351.207031 98.84375 349.480469 96.242188 347.507812 93.796875 C 347.015625 93.167969 346.4375 92.535156 345.78125 91.984375 C 343.5625 89.933594 340.847656 88.359375 339.039062 86.230469 C 338.628906 85.757812 337.890625 85.601562 337.398438 85.996094 C 336.984375 86.386719 336.902344 87.097656 337.3125 87.648438 Z M 337.3125 87.648438 " fill-opacity="1" fill-rule="evenodd"/><path fill="#faf7de" d="M 282.144531 104.203125 C 282.0625 104.203125 281.980469 104.125 281.894531 104.125 C 281.320312 103.808594 281.074219 103.097656 281.402344 102.546875 C 281.566406 102.152344 281.8125 101.996094 281.976562 101.835938 C 282.386719 101.523438 282.800781 101.601562 283.292969 101.679688 C 283.621094 101.757812 284.03125 102.230469 284.527344 102.941406 C 285.019531 103.730469 285.511719 105.226562 285.921875 105.859375 C 286.253906 106.410156 286.5 106.882812 286.746094 107.433594 C 286.992188 107.988281 287.238281 108.539062 287.402344 109.089844 C 287.652344 109.800781 287.816406 110.429688 287.898438 111.140625 C 288.058594 112.164062 288.226562 113.1875 288.308594 114.292969 C 288.472656 114.921875 288.058594 115.476562 287.484375 115.632812 C 286.910156 115.789062 286.253906 115.398438 286.089844 114.765625 C 285.757812 113.820312 285.265625 113.03125 284.9375 112.164062 C 284.527344 111.296875 284.113281 110.429688 283.785156 109.5625 C 283.457031 108.855469 283.210938 108.066406 282.882812 107.355469 C 282.71875 106.960938 282.550781 106.332031 282.386719 105.699219 C 282.390625 105.226562 282.304688 104.675781 282.144531 104.203125 Z M 282.144531 104.203125 " fill-opacity="1" fill-rule="evenodd"/><path fill="#faf7de" d="M 277.621094 217.398438 C 277.457031 217.632812 277.210938 217.792969 276.796875 218.027344 C 275.894531 218.660156 274.742188 219.367188 273.839844 220 C 273.347656 220.394531 272.933594 220.707031 272.605469 221.101562 C 271.289062 222.679688 269.644531 225.515625 268.492188 228.75 C 267.835938 230.5625 267.425781 232.53125 267.261719 234.425781 C 266.933594 238.523438 268 242.148438 270.960938 243.726562 C 271.453125 244.042969 272.195312 243.882812 272.523438 243.410156 C 272.851562 242.9375 272.6875 242.148438 272.195312 241.835938 C 271.207031 241.125 270.796875 240.023438 270.550781 238.761719 C 270.304688 237.578125 270.46875 236.160156 270.632812 234.738281 C 270.878906 233.085938 271.371094 231.429688 271.863281 229.773438 C 272.769531 226.9375 273.921875 224.257812 274.992188 222.835938 C 275.648438 221.890625 277.539062 220.710938 278.609375 219.761719 C 279.183594 219.289062 279.511719 218.816406 279.761719 218.421875 C 280.089844 217.871094 279.839844 217.160156 279.265625 216.847656 C 278.605469 216.609375 277.867188 216.847656 277.621094 217.398438 Z M 277.621094 217.398438 " fill-opacity="1" fill-rule="evenodd"/><path fill="#faf7de" d="M 267.179688 259.726562 C 266.933594 261.070312 266.769531 263.277344 266.355469 264.300781 L 262.328125 275.257812 C 261.09375 278.410156 259.859375 281.5625 258.546875 284.714844 C 257.640625 286.765625 256.738281 288.894531 255.75 290.945312 C 253.367188 296.066406 250.734375 301.113281 248.019531 306.078125 C 247.773438 306.628906 247.035156 306.867188 246.539062 306.550781 C 245.964844 306.234375 245.71875 305.605469 246.046875 305.054688 C 246.953125 303.003906 247.855469 300.953125 248.761719 298.828125 C 250.570312 294.648438 252.296875 290.550781 254.023438 286.371094 C 254.925781 284.324219 255.75 282.195312 256.652344 280.144531 C 257.558594 278.09375 258.460938 276.046875 259.367188 273.917969 L 263.890625 263.277344 C 264.300781 262.328125 264.550781 260.28125 264.875 259.097656 C 265.125 258.308594 265.371094 257.679688 265.617188 257.441406 C 266.027344 257.046875 266.4375 256.96875 266.851562 257.046875 C 267.179688 257.128906 267.589844 257.285156 267.917969 257.914062 C 268.25 258.46875 268 259.175781 267.507812 259.492188 C 267.34375 259.648438 267.261719 259.648438 267.179688 259.726562 Z M 267.179688 259.726562 " fill-opacity="1" fill-rule="evenodd"/><path fill="#faf7de" d="M 265.039062 41.457031 C 264.875 41.296875 264.628906 40.824219 264.546875 40.589844 C 264.300781 40.035156 264.21875 39.5625 264.382812 39.171875 C 264.546875 38.855469 264.710938 38.539062 265.207031 38.382812 C 265.78125 38.144531 266.519531 38.382812 266.769531 39.011719 C 266.851562 39.171875 266.851562 39.40625 266.851562 39.5625 C 267.015625 39.722656 267.261719 40.039062 267.34375 40.195312 C 267.589844 40.511719 267.671875 40.902344 267.671875 41.21875 C 267.753906 42.085938 267.671875 43.03125 267.425781 43.898438 C 267.175781 44.6875 266.851562 45.476562 266.4375 46.183594 C 265.78125 47.289062 265.125 48.390625 264.21875 49.339844 C 263.398438 50.285156 262.492188 51.230469 261.425781 52.019531 C 260.601562 52.648438 259.78125 53.199219 258.875 53.675781 C 257.558594 54.460938 256.160156 55.015625 254.683594 55.566406 C 254.105469 55.800781 253.449219 55.566406 253.203125 55.015625 C 252.953125 54.460938 253.203125 53.753906 253.777344 53.515625 C 254.761719 52.964844 255.667969 52.332031 256.570312 51.625 C 257.476562 50.914062 258.296875 50.207031 259.121094 49.417969 C 259.941406 48.628906 260.683594 47.839844 261.425781 47.050781 C 262.164062 46.183594 262.90625 45.398438 263.480469 44.53125 C 263.808594 44.058594 264.136719 43.503906 264.382812 42.953125 C 264.792969 42.480469 264.957031 41.929688 265.039062 41.457031 Z M 265.039062 41.457031 " fill-opacity="1" fill-rule="evenodd"/><path fill="#faf7de" d="M 237.496094 32.550781 C 237.824219 32.46875 238.15625 32.550781 238.480469 32.707031 C 238.976562 33.101562 239.140625 33.808594 238.730469 34.363281 C 238.648438 34.519531 238.238281 34.914062 237.496094 34.914062 C 236.753906 34.914062 234.867188 34.679688 234.699219 34.679688 L 225.574219 33.96875 C 222.121094 33.652344 218.667969 33.417969 215.214844 33.101562 C 212.910156 32.945312 210.609375 32.707031 208.308594 32.550781 C 205.429688 32.3125 202.550781 31.996094 199.671875 31.761719 C 196.796875 31.523438 193.917969 31.210938 191.039062 30.972656 C 188.164062 30.738281 185.285156 30.5 182.40625 30.34375 C 181.832031 30.34375 181.257812 29.789062 181.335938 29.160156 C 181.335938 28.53125 181.832031 28.054688 182.488281 28.054688 C 186.847656 27.976562 191.203125 28.054688 195.5625 28.136719 C 198.441406 28.214844 201.402344 28.371094 204.277344 28.609375 C 207.15625 28.84375 210.035156 29.082031 212.992188 29.398438 C 217.351562 29.871094 221.625 30.421875 225.984375 30.972656 L 235.027344 32.15625 C 235.191406 32.15625 236.425781 32.707031 237.167969 32.785156 C 237.167969 32.785156 237.085938 32.863281 237.085938 32.863281 C 237.085938 32.863281 237.167969 32.785156 237.167969 32.785156 C 237.167969 32.785156 237.25 32.707031 237.25 32.707031 C 237.332031 32.707031 237.332031 32.628906 237.414062 32.628906 C 237.332031 32.628906 237.496094 32.46875 237.496094 32.550781 C 237.414062 32.550781 237.332031 32.628906 237.25 32.628906 C 237.25 32.628906 237.167969 32.628906 237.167969 32.707031 L 237.085938 32.707031 C 237.332031 32.863281 237.496094 32.785156 237.496094 32.550781 Z M 237.496094 32.550781 " fill-opacity="1" fill-rule="evenodd"/><path fill="#faf7de" d="M 95.992188 66.128906 C 97.144531 66.601562 99.855469 66.839844 100.433594 66.996094 C 101.503906 67.234375 102.570312 67.46875 103.640625 67.707031 C 104.710938 67.863281 105.695312 68.101562 106.765625 68.257812 C 107.421875 68.414062 108.160156 68.492188 108.820312 68.652344 C 109.890625 68.808594 110.957031 69.046875 112.027344 69.28125 C 113.671875 69.597656 115.234375 69.914062 116.878906 70.226562 C 117.453125 70.308594 117.949219 70.859375 117.863281 71.488281 C 117.785156 72.121094 117.207031 72.59375 116.632812 72.515625 C 114.578125 72.433594 112.519531 72.433594 110.464844 72.355469 C 109.066406 72.277344 107.667969 72.121094 106.355469 71.882812 C 105.449219 71.726562 104.546875 71.488281 103.640625 71.332031 C 102.242188 71.015625 100.925781 70.542969 99.609375 70.070312 C 99.117188 69.832031 96.898438 69.359375 95.582031 68.808594 C 94.761719 68.492188 94.265625 68.019531 94.101562 67.707031 C 93.773438 67.152344 93.9375 66.445312 94.511719 66.128906 C 95.007812 65.578125 95.582031 65.734375 95.992188 66.128906 C 95.910156 66.128906 95.910156 66.128906 95.992188 66.128906 C 95.992188 66.207031 95.992188 66.207031 96.074219 66.285156 C 96.074219 66.285156 96.074219 66.207031 95.992188 66.128906 C 95.992188 66.050781 95.992188 66.128906 95.992188 66.128906 Z M 95.992188 66.128906 " fill-opacity="1" fill-rule="evenodd"/></svg>